<svg width="91" height="84" viewBox="0 0 91 84" fill="none" xmlns="http://www.w3.org/2000/svg">
<g clip-path="url(#clip0_1114_14756)">
<path opacity="0.08" d="M39.2012 75.6563L61.1296 84L90.9295 65.6423L60.1774 54.6801L39.2012 75.6563Z" fill="#0F172A"/>
<path d="M4.79131 21.4721C3.7796 20.6707 2.12118 19.1035 1.24436 16.6238C0.736523 15.1876 0.0342742 12.1485 1.20072 11.466C2.15689 10.9027 3.90656 12.2119 4.38663 12.5849C3.9264 11.9778 2.02993 9.33549 2.45842 5.71713C2.49413 5.4037 3.07338 0.849001 5.01746 0.511763C7.60824 0.0634353 8.1994 7.88339 15.2497 12.0413C17.035 13.0967 18.749 13.6283 20.5463 15.7073C22.2087 17.6315 22.9545 19.7423 23.3275 21.242C21.7246 24.4715 20.1257 27.705 18.5268 30.9346C16.8248 31.375 12.6152 32.1923 8.56441 30.0379C4.50565 27.8796 1.43877 23.1861 2.39891 21.8292C2.80756 21.2459 3.9264 21.3213 4.79528 21.4681L4.79131 21.4721Z" fill="white"/>
<path d="M4.79121 21.4721C3.92232 21.3213 2.80349 21.2459 2.39483 21.8331C1.4347 23.194 4.50158 27.8876 8.56033 30.0419C12.6112 32.1963 16.8167 31.3829 18.5227 30.9386C20.1256 27.709 21.7245 24.4755 23.3234 21.2459C22.9505 19.7423 22.2046 17.6355 20.5422 15.7113C18.7449 13.6323 17.031 13.1007 15.2456 12.0453C8.19532 7.88736 7.60417 0.0634424 5.01339 0.515738C3.06931 0.852976 2.49402 5.40767 2.45435 5.7211C2.02585 9.3355 3.92232 11.9779 4.38255 12.5889C3.90248 12.2159 2.15281 10.9066 1.19665 11.47C0.0302001 12.1524 0.736416 15.1955 1.24029 16.6278C2.11711 19.1035 3.77552 20.6707 4.78724 21.4761L4.79121 21.4721Z" stroke="#373A3A" stroke-width="0.991876" stroke-linecap="round" stroke-linejoin="round"/>
<path d="M4.38623 12.5849C5.60425 14.2989 7.42137 15.997 8.88141 16.604" stroke="#373A3A" stroke-width="0.991876" stroke-linecap="round" stroke-linejoin="round"/>
<path d="M4.79102 21.4722C6.4534 22.6307 9.24256 23.3171 9.24256 23.3171" stroke="#373A3A" stroke-width="0.991876" stroke-linecap="round" stroke-linejoin="round"/>
<path d="M67.0453 23.6464V58.5802C67.0453 59.592 66.5057 60.5204 65.6328 61.0242L41.0423 75.2239C40.6058 75.4699 40.1258 75.6008 39.6338 75.6008V37.8421L66.6723 22.2339C66.9104 22.6585 67.0492 23.1425 67.0492 23.6464H67.0453Z" fill="var(--color-1, currentColor)" />
<path d="M66.6682 22.2339L39.6297 37.8421L29.1753 31.8075L56.5907 15.9811L65.6327 21.2024C66.0691 21.4523 66.4262 21.8094 66.6682 22.2339Z" fill="white"/>
<path d="M56.5909 15.9811L29.1755 31.8075L22.7759 28.1098L50.1874 12.2834L56.5909 15.9811Z" fill="var(--color-3, currentColor)" stroke="#373A3A" stroke-width="0.991876" stroke-linecap="round" stroke-linejoin="round"/>
<path d="M41.1178 7.04635L50.1876 12.2835L22.7761 28.1098L12.6748 22.2776C12.9208 21.8531 13.2699 21.492 13.7064 21.246L22.9983 15.878L38.293 7.04635C39.1658 6.53851 40.241 6.53851 41.1139 7.04635H41.1178Z" fill="white"/>
<path d="M39.63 37.8421V75.6008C39.138 75.6008 38.658 75.4699 38.2215 75.2239L13.7063 61.0718C12.8335 60.568 12.2979 59.6316 12.2979 58.6279V23.6861C12.2979 23.1782 12.4327 22.6981 12.6748 22.2776L22.776 28.1098V40.9407L29.1756 44.6345V31.8036L39.63 37.8381V37.8421Z" fill="var(--color-2, currentColor)"/>
<path d="M29.1755 31.8075V44.6384L22.7759 40.9447V28.1098L29.1755 31.8075Z" fill="var(--color-3, currentColor)" stroke="#373A3A" stroke-width="0.991876" stroke-linecap="round" stroke-linejoin="round"/>
<path d="M12.6748 22.2777L22.7761 28.1099" stroke="#373A3A" stroke-width="0.991876" stroke-linecap="round" stroke-linejoin="round"/>
<path d="M29.1758 31.8077L39.6302 37.8422L66.6687 22.2341" stroke="#373A3A" stroke-width="0.991876" stroke-linecap="round" stroke-linejoin="round"/>
<path d="M39.6304 37.8422V75.601" stroke="#373A3A" stroke-width="0.991876" stroke-linecap="round" stroke-linejoin="round"/>
<path d="M12.6748 22.2776C12.4327 22.6982 12.2979 23.1782 12.2979 23.6861V58.6239C12.2979 59.6316 12.8335 60.564 13.7063 61.0679L38.2215 75.22C38.658 75.466 39.138 75.5969 39.63 75.5969C40.122 75.5969 40.602 75.466 41.0385 75.22L65.6291 61.0203C66.5019 60.5164 67.0415 59.588 67.0415 58.5763V23.6464C67.0415 23.1425 66.9026 22.6585 66.6646 22.234C66.4225 21.8094 66.0655 21.4524 65.6291 21.2024L56.5871 15.9812L50.1836 12.2874L41.1138 7.05031C40.241 6.54247 39.1658 6.54247 38.2929 7.05031L22.9982 15.882L13.7063 21.25C13.2699 21.496 12.9208 21.857 12.6748 22.2816V22.2776Z" stroke="#373A3A" stroke-width="0.991876" stroke-linecap="round" stroke-linejoin="round"/>
<path d="M56.5914 15.9812L29.176 31.8076V44.6385L22.7764 40.9448V28.1099L50.1879 12.2835" stroke="#373A3A" stroke-width="0.991876" stroke-linecap="round" stroke-linejoin="round"/>
<path d="M72.9487 49.1493C73.7264 49.8675 73.8573 50.4189 73.8176 50.7919C73.651 52.3392 70.3103 53.1764 68.3821 53.339C65.0891 53.6168 62.3872 52.2242 60.8518 51.2124C60.2051 51.5695 59.5941 51.7441 59.0426 51.8076C55.3846 52.2361 51.2941 48.213 48.4692 42.0316C53.2223 36.4256 57.4596 34.8941 60.4947 34.5608C65.4462 34.0173 66.7674 36.6993 72.1632 36.0566C79.1857 35.2155 83.3555 29.903 85.1131 31.4305C85.7916 32.0216 85.6289 33.2158 85.4702 34.418C84.8989 38.6553 81.1734 40.9207 80.487 41.3175C80.9591 41.5595 81.5781 41.9801 81.8082 42.6704C82.3716 44.3606 80.1537 46.3007 79.5467 46.8363C77.2575 48.8399 74.4286 49.1216 72.9448 49.1454L72.9487 49.1493Z" fill="white"/>
<path d="M80.4909 41.3214C81.1773 40.9207 84.9028 38.6592 85.4741 34.4219C85.6368 33.2198 85.7994 32.0255 85.117 31.4344C83.3594 29.9069 79.1896 35.2194 72.1671 36.0605C66.7713 36.7032 65.4461 34.0212 60.4986 34.5647C57.4635 34.898 53.2262 36.4295 48.4731 42.0355C51.294 48.2169 55.3845 52.236 59.0465 51.8115C59.598 51.748 60.209 51.5734 60.8557 51.2163C62.3912 52.2281 65.093 53.6207 68.3861 53.3429C70.3143 53.1803 73.6509 52.3431 73.8215 50.7958C73.8612 50.4228 73.7303 49.8714 72.9526 49.1532C74.4365 49.1334 77.2653 48.8478 79.5546 46.8442C80.1616 46.3125 82.3794 44.3724 81.816 42.6783C81.5859 41.9879 80.967 41.5634 80.4949 41.3254L80.4909 41.3214Z" stroke="#373A3A" stroke-width="0.991876" stroke-linecap="round" stroke-linejoin="round"/>
<path d="M80.491 41.3214C78.5866 42.3768 73.8613 42.837 71.0801 42.7537" stroke="#373A3A" stroke-width="0.991876" stroke-linecap="round" stroke-linejoin="round"/>
<path d="M72.9486 49.1493C69.3064 48.9112 66.2713 47.8995 63.9106 46.0467" stroke="#373A3A" stroke-width="0.991876" stroke-linecap="round" stroke-linejoin="round"/>
<path d="M60.8518 51.2124C58.1341 48.9549 57.6738 47.352 57.6738 47.352" stroke="#373A3A" stroke-width="0.991876" stroke-linecap="round" stroke-linejoin="round"/>
</g>
<defs>
<clipPath id="clip0_1114_14756">
<rect width="90.8598" height="84" fill="white" transform="translate(0.0703125)"/>
</clipPath>
</defs>
</svg>
