<svg width="19" height="18" viewBox="0 0 19 18" fill="none" xmlns="http://www.w3.org/2000/svg">
<path d="M10.25 6.75H14.75C15.1478 6.75 15.5294 6.90804 15.8107 7.18934C16.092 7.47064 16.25 7.85218 16.25 8.25V12.75M14.75 14.25H7.25C6.85218 14.25 6.47064 14.092 6.18934 13.8107C5.90804 13.5294 5.75 13.1478 5.75 12.75V8.25C5.75 7.85218 5.90804 7.47064 6.18934 7.18934C6.47064 6.90804 6.85218 6.75 7.25 6.75" stroke="currentColor" stroke-width="1.5" stroke-linecap="round" stroke-linejoin="round"/>
<path d="M9.9365 9.4425C9.66346 9.7256 9.51253 10.1046 9.51622 10.4979C9.51991 10.8912 9.67793 11.2673 9.95624 11.5452C10.2346 11.8231 10.6109 11.9806 11.0042 11.9838C11.3975 11.9869 11.7763 11.8354 12.059 11.562M13.25 6.75V5.25C13.25 4.85218 13.092 4.47064 12.8107 4.18934C12.5294 3.90804 12.1478 3.75 11.75 3.75H7.25M4.25 3.75C3.85218 3.75 3.47064 3.90804 3.18934 4.18934C2.90804 4.47064 2.75 4.85218 2.75 5.25V9.75C2.75 10.1478 2.90804 10.5294 3.18934 10.8107C3.47064 11.092 3.85218 11.25 4.25 11.25H5.75M2.75 2.25L16.25 15.75" stroke="currentColor" stroke-width="1.5" stroke-linecap="round" stroke-linejoin="round"/>
</svg>
