<svg xmlns="http://www.w3.org/2000/svg" width="16" height="16" viewBox="0 0 16 16" fill="currentColor"><g clip-path="url(#clip0_1375_71876)"><path d="M3.65457 3.20035V4.0766C4.92207 4.65348 6.49395 5.00035 8.2002 5.00035C9.90645 5.00035 11.4783 4.6541 12.7471 4.07691V3.20035L13.4333 2.50348C13.5759 2.35863 13.6561 2.16191 13.6561 1.95723C13.6561 1.60254 13.4185 1.29348 13.0799 1.20754L8.44548 0.0303516C8.28623 -0.0101172 8.11954 -0.0101172 7.96048 0.0303516L3.3261 1.20754C2.98332 1.29379 2.74582 1.60285 2.74582 1.95723C2.74582 2.16207 2.82595 2.35879 2.9686 2.50348L3.65457 3.20035ZM7.17207 1.9091L8.10957 1.51848C8.13457 1.50848 8.1752 1.50035 8.2002 1.50035C8.22607 1.50035 8.26651 1.50835 8.29032 1.51824L9.22782 1.90886C9.31466 1.94486 9.37185 2.03039 9.37185 2.12511C9.37207 3.34723 8.45332 4.00035 8.17207 4.00035C7.95332 4.00035 7.02832 3.3816 7.02832 2.09723C7.02832 2.03035 7.08457 1.94504 7.17207 1.9091ZM4.26176 5.38785C4.23082 5.59098 4.2002 5.79098 4.2002 6.00035C4.2002 8.20941 5.99082 10.0004 8.17207 10.0004C10.3533 10.0004 12.1439 8.20941 12.1439 6.00035C12.1439 5.79082 12.1146 5.58941 12.0835 5.38879C10.9252 5.78785 9.5877 6.00035 8.2002 6.00035C6.8127 6.00035 5.4752 5.78785 4.26176 5.38785ZM11.2002 11.0004H10.2002L8.2002 13.0004L6.2002 11.0004H5.2002C2.99113 11.0004 1.2002 12.7913 1.2002 15.0004C1.2002 15.5525 1.64801 16.0004 2.2002 16.0004H14.2002C14.7524 16.0004 15.2002 15.5525 15.2002 15.0004C15.2002 12.791 13.4096 11.0004 11.2002 11.0004ZM12.4033 13.666L11.9093 14.1463L12.026 14.8247C12.047 14.9474 11.9176 15.0389 11.8092 14.9819L11.2002 14.6629L10.5896 14.9832C10.4811 15.0405 10.3517 14.9487 10.3727 14.826L10.4895 14.1476L9.99541 13.6673C9.90654 13.581 9.95573 13.4304 10.0782 13.4127L10.7596 13.3129L11.0647 12.6954C11.1199 12.5839 11.2783 12.5853 11.3329 12.6954L11.6408 13.3129L12.3236 13.4122C12.4439 13.4285 12.4939 13.5816 12.4033 13.666Z" fill="currentColor"></path></g><defs><clipPath id="clip0_1375_71876"><rect width="16" height="16" fill="white"></rect></clipPath></defs></svg>