<svg width="64" height="64" viewBox="0 0 64 64" fill="none" xmlns="http://www.w3.org/2000/svg">
<g clip-path="url(#clip0_617_39949)">
<path opacity="0.3" d="M2.68684 32.1198C2.18876 31.9368 1.63839 31.9592 1.1568 32.182C0.675204 32.4048 0.30184 32.8097 0.11884 33.3078C-0.0641592 33.8059 -0.0418032 34.3563 0.18099 34.8379C0.403783 35.3195 0.808764 35.6928 1.30684 35.8758L24.9068 44.5158C27.1508 45.3398 28.5588 45.8558 30.0268 46.0638C31.3268 46.2478 32.6508 46.2478 33.9508 46.0638C35.4188 45.8558 36.8308 45.3398 39.0708 44.5158L62.6708 35.8758C63.1689 35.6928 63.5739 35.3195 63.7967 34.8379C64.0195 34.3563 64.0418 33.8059 63.8588 33.3078C63.6758 32.8097 63.3025 32.4048 62.8209 32.182C62.3393 31.9592 61.7889 31.9368 61.2908 32.1198L37.8908 40.6798C35.3628 41.6078 34.3708 41.9598 33.3708 42.0998C32.4408 42.2315 31.4969 42.2315 30.5668 42.0998C29.5668 41.9598 28.5708 41.6038 26.0468 40.6798L2.64684 32.1198H2.68684ZM2.68684 47.9998C2.18876 47.8168 1.63839 47.8392 1.1568 48.062C0.918336 48.1723 0.703939 48.3285 0.525846 48.5217C0.347753 48.7148 0.209452 48.9412 0.11884 49.1878C0.0282281 49.4344 -0.0129209 49.6965 -0.00225718 49.959C0.0084065 50.2215 0.0706739 50.4794 0.18099 50.7179C0.403783 51.1995 0.808764 51.5728 1.30684 51.7558L24.9068 60.3958C27.1508 61.2198 28.5588 61.7358 30.0268 61.9438C31.3268 62.1278 32.6508 62.1278 33.9508 61.9438C35.4188 61.7358 36.8308 61.2198 39.0708 60.3958L62.6708 51.7558C63.1689 51.5728 63.5739 51.1995 63.7967 50.7179C64.0195 50.2363 64.0418 49.6859 63.8588 49.1878C63.6758 48.6897 63.3025 48.2848 62.8209 48.062C62.3393 47.8392 61.7889 47.8168 61.2908 47.9998L37.8908 56.5598C35.3628 57.4878 34.3708 57.8398 33.3708 57.9798C32.4408 58.1115 31.4969 58.1115 30.5668 57.9798C29.5668 57.8398 28.5708 57.4838 26.0468 56.5598L2.64684 47.9998H2.68684Z" fill="currentColor"/>
<path d="M34.4397 0.168098C36.0677 0.396098 37.0397 0.708098 40.7597 2.0681L59.3997 8.9081C60.3117 9.2441 60.6077 9.3561 61.0117 9.5481C62.0237 10.0121 62.7797 10.5521 63.3837 11.6041C64.2357 13.0961 64.2357 14.9161 63.3837 16.4041C62.7837 17.4601 62.0237 18.0041 61.0117 18.4681C60.4839 18.7046 59.9461 18.9182 59.3997 19.1081L40.7597 25.9481C37.0477 27.3081 36.0797 27.6161 34.4397 27.8441C32.821 28.0707 31.1785 28.0707 29.5597 27.8441C27.9317 27.6161 26.9597 27.3041 23.2397 25.9441L4.59973 19.1041C4.05346 18.9155 3.51563 18.7033 2.98773 18.4681C1.97173 18.0001 1.21973 17.4601 0.615734 16.4041C0.194446 15.6744 -0.0273437 14.8467 -0.0273438 14.0041C-0.0273437 13.1615 0.194446 12.3338 0.615734 11.6041C1.21973 10.5481 1.97573 10.0081 2.98773 9.5401C3.39173 9.3561 3.68773 9.2401 4.59973 8.9041L23.2397 2.0641C26.8437 0.744097 27.7997 0.432098 29.3597 0.192098L29.5597 0.164098C31.1785 -0.0625117 32.821 -0.0585117 34.4397 0.168098ZM33.8837 4.1281C32.6338 3.95326 31.3657 3.95326 30.1157 4.1281C28.7077 4.3281 27.3477 4.8241 24.6357 5.8241L5.99573 12.6641C4.84773 13.0841 4.27573 13.2961 4.10773 13.5921C4.03298 13.7165 3.99349 13.8589 3.99349 14.0041C3.99349 14.1493 4.03298 14.2917 4.10773 14.4161C4.27973 14.7161 4.85173 14.9241 5.99573 15.3441L24.6357 22.1841C27.3597 23.1841 28.7157 23.6801 30.1157 23.8801C31.3637 24.0561 32.6357 24.0561 33.8837 23.8801C35.2917 23.6801 36.6517 23.1841 39.3637 22.1841L58.0037 15.3441C59.1477 14.9241 59.7237 14.7121 59.8917 14.4161C59.9665 14.2917 60.006 14.1493 60.006 14.0041C60.006 13.8589 59.9665 13.7165 59.8917 13.5921C59.7197 13.2961 59.1477 13.0841 58.0037 12.6641L39.3637 5.8241C36.6397 4.8241 35.2837 4.3281 33.8837 4.1281Z" fill="currentColor"/>
</g>
<defs>
<clipPath id="clip0_617_39949">
<rect width="64" height="64" fill="white"/>
</clipPath>
</defs>
</svg>
