<svg width="20" height="20" viewBox="0 0 20 20" fill="none" xmlns="http://www.w3.org/2000/svg">
<rect width="20" height="20" rx="10" fill="currentColor"/>
<path d="M10 4.75C8.90638 4.75129 7.85792 5.1863 7.08461 5.95961C6.3113 6.73292 5.87629 7.78138 5.875 8.875C5.874 9.76866 6.16589 10.638 6.706 11.35C6.706 11.35 6.8185 11.4981 6.83688 11.5195L10 15.25L13.1646 11.5176C13.1811 11.4978 13.294 11.35 13.294 11.35L13.2944 11.3489C13.8341 10.6372 14.1259 9.76823 14.125 8.875C14.1237 7.78138 13.6887 6.73292 12.9154 5.95961C12.1421 5.1863 11.0936 4.75129 10 4.75ZM10 10.375C9.70333 10.375 9.41332 10.287 9.16665 10.1222C8.91997 9.95738 8.72771 9.72311 8.61418 9.44903C8.50065 9.17494 8.47095 8.87334 8.52882 8.58236C8.5867 8.29139 8.72956 8.02412 8.93934 7.81434C9.14912 7.60456 9.4164 7.4617 9.70737 7.40382C9.99834 7.34594 10.2999 7.37565 10.574 7.48918C10.8481 7.60271 11.0824 7.79497 11.2472 8.04164C11.412 8.28832 11.5 8.57833 11.5 8.875C11.4995 9.27267 11.3413 9.65391 11.0601 9.93511C10.7789 10.2163 10.3977 10.3745 10 10.375Z" fill="white"/>
</svg>
