<svg width="198" height="191" viewBox="0 0 198 191" fill="none" xmlns="http://www.w3.org/2000/svg">
<path opacity="0.08" d="M109.52 178.88L95.64 188.65C92.84 190.62 87.73 190.77 84.22 188.99L19.94 156.32C16.43 154.54 15.86 151.5 18.66 149.52L32.54 139.75C35.34 137.78 40.45 137.63 43.96 139.41L108.24 172.08C111.75 173.86 112.32 176.9 109.52 178.88ZM122.8 171.95L167.21 186.25C172.14 187.84 177.48 187.15 181.89 184.37L194.66 176.33C199.4 173.34 198.98 166.04 193.93 163.66L127.31 132.34L122.8 171.96V171.95Z" fill="#0F172A"/>
<path d="M141.29 45.6698V159.99C141.29 162.25 140.49 163.87 139.19 164.62L127.73 171.02C128.96 170.23 129.7 168.64 129.7 166.47V158.42L129.57 50.6898C129.57 46.0398 125.92 42.1998 123.14 40.3398C104.88 28.1898 86.54 17.6098 68.28 8.66981C66.56 7.81981 64.94 7.80981 63.76 8.38981L75.3 1.72981C76.46 1.05981 78.03 1.07981 79.78 1.93981C98.07 10.8898 116.43 21.4898 134.72 33.6598C138.44 36.1298 141.3 41.3798 141.3 45.6798L141.29 45.6698Z" fill="#A7F3D0"/>
<path d="M129.69 158.42V166.47C129.69 168.64 128.96 170.23 127.73 171.02C127.67 171.06 127.61 171.09 127.55 171.13C126.41 171.76 124.88 171.74 123.13 170.89C104.87 161.95 86.5299 151.36 68.2699 139.22C64.5599 136.75 61.7 131.5 61.7 127.21V119.17L129.68 158.42H129.69Z" fill="#A7F3D0"/>
<path d="M129.56 50.6794L129.69 158.409L61.72 119.159L61.85 11.5694C61.85 10.0894 62.59 8.93939 63.76 8.36939C64.94 7.79939 66.56 7.79939 68.28 8.64939C86.54 17.5894 104.88 28.1694 123.14 40.3194C125.93 42.1794 129.57 46.0294 129.57 50.6694L129.56 50.6794Z" fill="white"/>
<path d="M127.73 171.02C128.96 170.23 129.7 168.64 129.7 166.47V158.42L129.57 50.6901C129.57 46.0401 125.92 42.2001 123.14 40.3401C104.88 28.1901 86.54 17.6101 68.28 8.67008C66.56 7.82008 64.94 7.81008 63.76 8.39008C62.59 8.96008 61.85 10.1101 61.85 11.5901L61.72 119.18V127.22C61.72 131.51 64.57 136.75 68.28 139.23C86.54 151.37 104.88 161.96 123.14 170.9C124.89 171.75 126.41 171.77 127.56 171.14" stroke="#0F172A" stroke-width="2.5" stroke-linecap="round" stroke-linejoin="round"/>
<path d="M129.68 158.42L61.71 119.17" stroke="#0F172A" stroke-width="2.5" stroke-linecap="round" stroke-linejoin="round"/>
<path d="M63.75 8.38005L75.29 1.72005C76.45 1.05005 78.02 1.07005 79.77 1.93005C98.06 10.88 116.42 21.48 134.71 33.65C138.43 36.12 141.29 41.37 141.29 45.67V159.99C141.29 162.25 140.49 163.87 139.19 164.62L127.73 171.02C127.67 171.06 127.61 171.09 127.55 171.13" stroke="#0F172A" stroke-width="2.5" stroke-linecap="round" stroke-linejoin="round"/>
<path d="M116.86 86.1901V107.59C116.86 108.45 116.46 109.02 115.82 109.08L97.6799 110.7C97.3599 110.73 96.9999 110.63 96.6399 110.42V86.6101L116.59 84.8301C116.77 85.2901 116.87 85.7601 116.87 86.2001L116.86 86.1901Z" fill="#10B981"/>
<path d="M116.58 84.82L96.6299 86.6L75.1699 59.91C75.3499 59.65 75.6099 59.5 75.9299 59.47L94.0699 57.85C94.7099 57.79 95.5099 58.25 96.1599 59.06L115.81 83.5C116.13 83.9 116.39 84.35 116.57 84.82H116.58Z" fill="#10B981"/>
<path d="M96.6299 86.6002V110.41C96.2699 110.2 95.9099 109.88 95.5899 109.49L75.9399 85.0402C75.2999 84.2402 74.8999 83.2102 74.8999 82.3502V60.9602C74.8999 60.5302 74.9999 60.1702 75.1799 59.9102L96.6399 86.6002H96.6299Z" fill="#10B981"/>
<path d="M116.58 84.8202L96.6299 86.6002L75.1699 59.9102" stroke="#0F172A" stroke-width="2.5" stroke-linecap="round" stroke-linejoin="round"/>
<path d="M96.6299 86.5996V110.41" stroke="#0F172A" stroke-width="2.5" stroke-linecap="round" stroke-linejoin="round"/>
<path d="M116.58 84.8197C116.76 85.2797 116.86 85.7497 116.86 86.1897V107.59C116.86 108.45 116.46 109.02 115.82 109.08L97.6799 110.7C97.3599 110.73 96.9999 110.63 96.6399 110.42C96.2799 110.21 95.9199 109.89 95.5999 109.5L75.9499 85.0497C75.3099 84.2497 74.9099 83.2197 74.9099 82.3597V60.9697C74.9099 60.5397 75.0099 60.1797 75.1899 59.9197C75.3699 59.6597 75.6299 59.5097 75.9499 59.4797L94.0899 57.8597C94.7299 57.7997 95.5299 58.2597 96.1799 59.0697L115.83 83.5097C116.15 83.9097 116.41 84.3597 116.59 84.8297L116.58 84.8197Z" stroke="#0F172A" stroke-width="2.5" stroke-linecap="round" stroke-linejoin="round"/>
<path d="M110.03 95.5403L111.35 95.4203L109.37 91.0303L107.39 95.7703L108.71 95.6503V103.65L104.78 104V96.0103L106.1 95.8903L104.12 91.4903L102.14 96.2403L103.46 96.1203V104.12L102.33 104.22V105.99L108.71 105.42L109.75 105.33L111.16 105.2V103.44L110.03 103.54V95.5403Z" fill="#0F172A"/>
<path d="M81.3301 94.8791V145.739C81.3301 148.029 80.5301 149.619 79.2401 150.379L61.0801 160.549C61.3701 160.359 61.6201 160.109 61.8501 159.809C62.5201 158.929 62.9201 157.669 62.9201 156.079V105.689C62.9201 101.119 59.7101 95.5691 55.7501 93.2791L8.41009 65.9591C6.56009 64.8891 4.86009 64.7291 3.59009 65.3191L21.9101 54.7392C23.2001 53.9892 24.9901 54.0892 26.9601 55.2392L74.1901 82.5092C78.1301 84.7792 81.3301 90.3291 81.3301 94.8891V94.8791Z" fill="#A7F3D0"/>
<path d="M62.92 105.689V156.079C62.92 157.669 62.52 158.929 61.85 159.809C61.63 160.109 61.37 160.349 61.08 160.549L60.49 160.889C59.23 161.449 57.57 161.279 55.76 160.229L44.04 153.459L39.62 150.909L32.09 160.359L24.57 142.219L8.43001 132.899C4.47001 130.619 1.26001 125.059 1.26001 120.499V70.0994C1.26001 67.9294 1.98001 66.3694 3.17001 65.5794L3.61001 65.3294C4.88001 64.7394 6.58001 64.9094 8.43001 65.9694L55.77 93.2894C59.73 95.5794 62.94 101.129 62.94 105.699L62.92 105.689ZM53.85 113.809L46.52 101.119L34.96 107.799L28.02 111.799L21.68 100.759L14.35 104.989L28.03 128.729L53.86 113.809H53.85Z" fill="white"/>
<path d="M60.49 160.879L61.08 160.539C60.9 160.679 60.7 160.789 60.49 160.879Z" fill="white"/>
<path d="M46.5201 101.109L53.8501 113.809L28.0201 128.729L14.3401 104.979L21.6701 100.749L28.0101 111.799L34.9501 107.789L46.5101 101.109H46.5201Z" fill="#10B981"/>
<path d="M44.0301 153.449L32.0801 160.349L39.6101 150.899L44.0301 153.449Z" fill="#0F172A"/>
<path d="M3.60002 65.3099C4.87002 64.7199 6.57002 64.8899 8.42002 65.9499L55.76 93.2699C59.72 95.5599 62.93 101.11 62.93 105.68V156.07C62.93 157.66 62.53 158.92 61.86 159.8C61.64 160.1 61.38 160.34 61.09 160.54C60.91 160.68 60.71 160.79 60.5 160.88C59.24 161.44 57.58 161.27 55.77 160.22L44.05 153.45L39.63 150.9L32.1 160.35L24.58 142.21L8.44002 132.89C4.48002 130.61 1.27002 125.05 1.27002 120.49V70.0899C1.27002 67.9199 1.99002 66.3599 3.18002 65.5699" stroke="#0F172A" stroke-width="2.5" stroke-linecap="round" stroke-linejoin="round"/>
<path d="M60.4899 160.88L61.0799 160.54L79.2399 150.37C80.5299 149.62 81.3299 148.02 81.3299 145.73V94.8696C81.3299 90.3096 78.1299 84.7596 74.1899 82.4896L26.9599 55.2196C24.9799 54.0696 23.1999 53.9696 21.9099 54.7196L3.5899 65.2996L3.1499 65.5496" stroke="#0F172A" stroke-width="2.5" stroke-linecap="round" stroke-linejoin="round"/>
<path d="M32.0801 160.349L44.0301 153.449" stroke="#0F172A" stroke-width="2.5" stroke-linecap="round" stroke-linejoin="round"/>
<path d="M53.8501 113.81L28.0201 128.73L14.3401 104.98L21.6701 100.75L28.0101 111.8L34.9501 107.79L46.5101 101.11H46.5201L53.8501 113.81Z" stroke="#0F172A" stroke-width="2.5" stroke-linecap="round" stroke-linejoin="round"/>
</svg>
