<svg width="30" height="30" viewBox="0 0 30 30" fill="none" xmlns="http://www.w3.org/2000/svg">
<path opacity="0.75" d="M18.75 20.8625V16.25H20.625V19.775L23.675 21.5375L22.7375 23.1625L18.75 20.8625ZM24.375 4.375L22.5 2.5L20.625 4.375L18.75 2.5L16.875 4.375L15 2.5L13.125 4.375L11.25 2.5L9.375 4.375L7.5 2.5L5.625 4.375L3.75 2.5V27.5L5.625 25.625L7.5 27.5L9.375 25.625L11.25 27.5L13.225 25.525C13.4 25.7625 13.6 25.975 13.8125 26.1875C15.4524 27.8029 17.6627 28.7071 19.9647 28.7043C22.2666 28.7014 24.4747 27.7917 26.1106 26.1723C27.7465 24.5528 28.6784 22.354 28.7045 20.0523C28.7306 17.7505 27.8488 15.5311 26.25 13.875V2.5L24.375 4.375ZM13.875 13.75C13.125 14.4625 12.5375 15.3125 12.0875 16.25H7.5V13.75H13.875ZM11.3375 18.75C11.25 19.1625 11.25 19.575 11.25 20C11.25 20.425 11.25 20.8375 11.3375 21.25H7.5V18.75H11.3375ZM22.5 11.25H7.5V8.75H22.5V11.25ZM26.0625 20C26.0625 20.8 25.9125 21.5875 25.625 22.325C25.3 23.05 24.85 23.75 24.2875 24.2875C23.75 24.85 23.05 25.3 22.325 25.625C21.5875 25.9125 20.8 26.0625 20 26.0625C16.65 26.0625 13.9375 23.35 13.9375 20C13.9375 18.3875 14.575 16.875 15.7125 15.7125C16.875 14.575 18.3875 13.9375 20 13.9375C23.3375 13.9375 26.0625 16.65 26.0625 20Z" fill="currentColor"/>
</svg>
