<svg width="25" height="24" viewBox="0 0 25 24" fill="none" xmlns="http://www.w3.org/2000/svg">
<path d="M20.4999 19.9999L16.4499 15.9499M16.4499 15.9499C17.0999 15.2998 17.6156 14.5281 17.9674 13.6788C18.3192 12.8295 18.5002 11.9192 18.5002 10.9999C18.5002 10.0806 18.3192 9.17027 17.9674 8.32095C17.6156 7.47163 17.0999 6.69991 16.4499 6.04987C15.7998 5.39983 15.0281 4.88418 14.1788 4.53238C13.3295 4.18058 12.4192 3.99951 11.4999 3.99951C10.5806 3.99951 9.67027 4.18058 8.82095 4.53238C7.97163 4.88418 7.19991 5.39983 6.54987 6.04987C5.23705 7.36269 4.49951 9.14326 4.49951 10.9999C4.49951 12.8565 5.23705 14.637 6.54987 15.9499C7.86269 17.2627 9.64326 18.0002 11.4999 18.0002C13.3565 18.0002 15.137 17.2627 16.4499 15.9499Z" stroke="currentColor" stroke-width="2" stroke-linecap="round" stroke-linejoin="round"/>
</svg>
