<svg width="61" height="60" viewBox="0 0 61 60" fill="none" xmlns="http://www.w3.org/2000/svg">
<path fill-rule="evenodd" clip-rule="evenodd" d="M11.7613 17.6327L27.5863 10.0389C28.4959 9.60362 29.4915 9.37766 30.5 9.37766C31.5085 9.37766 32.5041 9.60362 33.4138 10.0389L49.2388 17.6327C49.8031 17.9052 50.2793 18.3311 50.6129 18.8617C50.9465 19.3922 51.124 20.006 51.125 20.6327V22.5002C51.1248 27.8797 49.771 33.1727 47.1884 37.8917C44.6057 42.6107 40.8772 46.604 36.3462 49.5039L32.6488 51.8702C32.0078 52.282 31.2619 52.501 30.5 52.501C29.7381 52.501 28.9922 52.282 28.3512 51.8702L24.6537 49.5077C20.1222 46.6074 16.3934 42.6135 13.8107 37.8938C11.2281 33.1741 9.8746 27.8803 9.875 22.5002V20.6327C9.875 19.3539 10.61 18.1877 11.7613 17.6327ZM25.1488 4.96894L9.3275 12.5627C7.80758 13.2938 6.5248 14.4389 5.62661 15.8665C4.72841 17.294 4.25126 18.9461 4.25 20.6327V22.5002C4.24969 28.8238 5.84053 35.0457 8.87602 40.5931C11.9115 46.1405 16.294 50.8349 21.62 54.2439L25.3175 56.6064C26.864 57.5983 28.6627 58.1255 30.5 58.1255C32.3373 58.1255 34.136 57.5983 35.6825 56.6064L39.38 54.2439C44.706 50.8349 49.0885 46.1405 52.124 40.5931C55.1595 35.0457 56.7503 28.8238 56.75 22.5002V20.6327C56.75 17.1902 54.7775 14.0514 51.6725 12.5627L35.8475 4.96894C34.1783 4.16911 32.3509 3.75391 30.5 3.75391C28.6491 3.75391 26.818 4.16911 25.1488 4.96894ZM32.2625 37.3877C31.9862 37.6452 31.7645 37.9557 31.6108 38.3007C31.4571 38.6457 31.3744 39.0181 31.3678 39.3957C31.3611 39.7734 31.4306 40.1485 31.572 40.4987C31.7135 40.8489 31.924 41.167 32.1911 41.4341C32.4582 41.7011 32.7763 41.9117 33.1265 42.0532C33.4767 42.1946 33.8518 42.2641 34.2295 42.2574C34.6071 42.2507 34.9795 42.1681 35.3245 42.0144C35.6695 41.8606 35.98 41.639 36.2375 41.3627C38.3937 39.2102 40.43 36.1202 41.9225 33.1314C43.37 30.2364 44.5625 26.9327 44.5625 24.3752C44.5625 23.6293 44.2662 22.9139 43.7387 22.3864C43.2113 21.859 42.4959 21.5627 41.75 21.5627C41.0041 21.5627 40.2887 21.859 39.7613 22.3864C39.2338 22.9139 38.9375 23.6293 38.9375 24.3752C38.9375 25.5677 38.255 27.8889 36.89 30.6189C35.57 33.2552 33.8563 35.7902 32.2625 37.3877Z" fill="currentColor"/>
</svg>
