<svg width="24" height="20" viewBox="0 0 24 20" fill="none" xmlns="http://www.w3.org/2000/svg">
<g clip-path="url(#clip0_658_49358)">
<path d="M2.4 3.6002C2.4 2.27645 3.47625 1.2002 4.8 1.2002H15.6C16.9237 1.2002 18 2.27645 18 3.6002V4.8002H19.9013C20.5388 4.8002 21.15 5.05145 21.6 5.50145L23.2987 7.2002C23.7488 7.6502 24 8.26145 24 8.89895V14.4002C24 15.7239 22.9238 16.8002 21.6 16.8002H21.4763C21.0863 18.1839 19.8113 19.2002 18.3 19.2002C16.7888 19.2002 15.5175 18.1839 15.1237 16.8002H11.2763C10.8863 18.1839 9.61125 19.2002 8.1 19.2002C6.58875 19.2002 5.3175 18.1839 4.92375 16.8002H4.8C3.47625 16.8002 2.4 15.7239 2.4 14.4002V12.6002H0.9C0.40125 12.6002 0 12.1989 0 11.7002C0 11.2014 0.40125 10.8002 0.9 10.8002H5.1C5.59875 10.8002 6 10.3989 6 9.9002C6 9.40145 5.59875 9.0002 5.1 9.0002H0.9C0.40125 9.0002 0 8.59895 0 8.1002C0 7.60145 0.40125 7.2002 0.9 7.2002H7.5C7.99875 7.2002 8.4 6.79895 8.4 6.3002C8.4 5.80145 7.99875 5.4002 7.5 5.4002H0.9C0.40125 5.4002 0 4.99895 0 4.5002C0 4.00145 0.40125 3.6002 0.9 3.6002H2.4ZM21.6 10.8002V8.89895L19.9013 7.2002H18V10.8002H21.6ZM9.6 15.9002C9.6 15.5024 9.44197 15.1208 9.16066 14.8395C8.87936 14.5582 8.49782 14.4002 8.1 14.4002C7.70218 14.4002 7.32064 14.5582 7.03934 14.8395C6.75804 15.1208 6.6 15.5024 6.6 15.9002C6.6 16.298 6.75804 16.6796 7.03934 16.9609C7.32064 17.2422 7.70218 17.4002 8.1 17.4002C8.49782 17.4002 8.87936 17.2422 9.16066 16.9609C9.44197 16.6796 9.6 16.298 9.6 15.9002ZM18.3 17.4002C18.6978 17.4002 19.0794 17.2422 19.3607 16.9609C19.642 16.6796 19.8 16.298 19.8 15.9002C19.8 15.5024 19.642 15.1208 19.3607 14.8395C19.0794 14.5582 18.6978 14.4002 18.3 14.4002C17.9022 14.4002 17.5206 14.5582 17.2393 14.8395C16.958 15.1208 16.8 15.5024 16.8 15.9002C16.8 16.298 16.958 16.6796 17.2393 16.9609C17.5206 17.2422 17.9022 17.4002 18.3 17.4002Z" fill="currentColor"/>
</g>
<defs>
<clipPath id="clip0_658_49358">
<rect width="24" height="19.2" fill="currentColor"/>
</clipPath>
</defs>
</svg>
