<svg width="12" height="12" viewBox="0 0 12 12" fill="none" xmlns="http://www.w3.org/2000/svg">
<path d="M2.91242 8.49984L3.86242 9.44984C3.96242 9.54984 4.01042 9.6665 4.00642 9.79984C4.00242 9.93317 3.95025 10.0498 3.84992 10.1498C3.74992 10.2415 3.63325 10.2895 3.49992 10.2938C3.36659 10.2982 3.24992 10.2502 3.14992 10.1498L1.34992 8.34984C1.29992 8.29984 1.26442 8.24567 1.24342 8.18734C1.22242 8.129 1.21225 8.0665 1.21292 7.99984C1.21359 7.93317 1.22409 7.87067 1.24442 7.81234C1.26475 7.754 1.30009 7.69984 1.35042 7.64984L3.15042 5.84984C3.24209 5.75817 3.35675 5.71234 3.49442 5.71234C3.63209 5.71234 3.75075 5.75817 3.85042 5.84984C3.95042 5.94984 4.00042 6.06867 4.00042 6.20634C4.00042 6.344 3.95042 6.46267 3.85042 6.56234L2.91242 7.49984H9.99992C10.1416 7.49984 10.2604 7.54784 10.3564 7.64384C10.4524 7.73984 10.5003 7.8585 10.4999 7.99984C10.4996 8.14117 10.4516 8.26 10.3559 8.35634C10.2603 8.45267 10.1416 8.5005 9.99992 8.49984H2.91242ZM9.08742 4.49984H1.99992C1.85825 4.49984 1.73959 4.45184 1.64392 4.35584C1.54825 4.25984 1.50025 4.14117 1.49992 3.99984C1.49959 3.8585 1.54759 3.73984 1.64392 3.64384C1.74025 3.54784 1.85892 3.49984 1.99992 3.49984H9.08742L8.13742 2.54984C8.03742 2.44984 7.98959 2.33317 7.99392 2.19984C7.99825 2.0665 8.05025 1.94984 8.14992 1.84984C8.24992 1.75817 8.36659 1.71017 8.49992 1.70584C8.63325 1.7015 8.74992 1.7495 8.84992 1.84984L10.6499 3.64984C10.6999 3.69984 10.7354 3.754 10.7564 3.81234C10.7774 3.87067 10.7878 3.93317 10.7874 3.99984C10.7871 4.0665 10.7768 4.129 10.7564 4.18734C10.7361 4.24567 10.7006 4.29984 10.6499 4.34984L8.84992 6.14984C8.75826 6.2415 8.64375 6.28734 8.50642 6.28734C8.36909 6.28734 8.25025 6.2415 8.14992 6.14984C8.04992 6.04984 7.99992 5.93117 7.99992 5.79384C7.99992 5.6565 8.04992 5.53767 8.14992 5.43734L9.08742 4.49984Z" fill="currentColor" fill-opacity="1"/>
</svg>
