<svg width="24" height="24" viewBox="0 0 24 24" fill="none" xmlns="http://www.w3.org/2000/svg">
<path d="M9 3H4C3.73478 3 3.48043 3.10536 3.29289 3.29289C3.10536 3.48043 3 3.73478 3 4V9C3 9.26522 3.10536 9.51957 3.29289 9.70711C3.48043 9.89464 3.73478 10 4 10H9C9.26522 10 9.51957 9.89464 9.70711 9.70711C9.89464 9.51957 10 9.26522 10 9V4C10 3.73478 9.89464 3.48043 9.70711 3.29289C9.51957 3.10536 9.26522 3 9 3ZM9 14H4C3.73478 14 3.48043 14.1054 3.29289 14.2929C3.10536 14.4804 3 14.7348 3 15V20C3 20.2652 3.10536 20.5196 3.29289 20.7071C3.48043 20.8946 3.73478 21 4 21H9C9.26522 21 9.51957 20.8946 9.70711 20.7071C9.89464 20.5196 10 20.2652 10 20V15C10 14.7348 9.89464 14.4804 9.70711 14.2929C9.51957 14.1054 9.26522 14 9 14ZM17.5 10C17.9596 10 18.4148 9.90947 18.8394 9.73358C19.264 9.55769 19.6499 9.29988 19.9749 8.97487C20.2999 8.64987 20.5577 8.26403 20.7336 7.83939C20.9095 7.41475 21 6.95963 21 6.5C21 6.04037 20.9095 5.58525 20.7336 5.16061C20.5577 4.73597 20.2999 4.35013 19.9749 4.02513C19.6499 3.70012 19.264 3.44231 18.8394 3.26642C18.4148 3.09053 17.9596 3 17.5 3C16.5717 3 15.6815 3.36875 15.0251 4.02513C14.3687 4.6815 14 5.57174 14 6.5C14 7.42826 14.3687 8.3185 15.0251 8.97487C15.6815 9.63125 16.5717 10 17.5 10ZM20 14H15C14.7348 14 14.4804 14.1054 14.2929 14.2929C14.1054 14.4804 14 14.7348 14 15V20C14 20.2652 14.1054 20.5196 14.2929 20.7071C14.4804 20.8946 14.7348 21 15 21H20C20.2652 21 20.5196 20.8946 20.7071 20.7071C20.8946 20.5196 21 20.2652 21 20V15C21 14.7348 20.8946 14.4804 20.7071 14.2929C20.5196 14.1054 20.2652 14 20 14Z" stroke="currentColor" stroke-width="2" stroke-linejoin="round"/>
</svg>
