<svg width="64" height="64" viewBox="0 0 64 64" fill="none" xmlns="http://www.w3.org/2000/svg">
<path opacity="0.2" d="M42 36C42 37.9778 41.4135 39.9112 40.3147 41.5557C39.2159 43.2002 37.6541 44.4819 35.8268 45.2388C33.9996 45.9957 31.9889 46.1937 30.0491 45.8079C28.1093 45.422 26.3275 44.4696 24.9289 43.0711C23.5304 41.6725 22.578 39.8907 22.1922 37.9509C21.8063 36.0111 22.0043 34.0004 22.7612 32.1732C23.5181 30.3459 24.7998 28.7841 26.4443 27.6853C28.0888 26.5865 30.0222 26 32 26C34.6522 26 37.1957 27.0536 39.0711 28.9289C40.9464 30.8043 42 33.3478 42 36ZM16 14C14.4178 14 12.871 14.4692 11.5554 15.3482C10.2398 16.2273 9.21447 17.4767 8.60897 18.9385C8.00347 20.4003 7.84504 22.0089 8.15372 23.5607C8.4624 25.1126 9.22433 26.538 10.3431 27.6569C11.462 28.7757 12.8874 29.5376 14.4393 29.8463C15.9911 30.155 17.5997 29.9965 19.0615 29.391C20.5233 28.7855 21.7727 27.7602 22.6518 26.4446C23.5308 25.129 24 23.5823 24 22C24 19.8783 23.1571 17.8434 21.6569 16.3431C20.1566 14.8429 18.1217 14 16 14ZM48 14C46.4178 14 44.871 14.4692 43.5554 15.3482C42.2398 16.2273 41.2145 17.4767 40.609 18.9385C40.0035 20.4003 39.845 22.0089 40.1537 23.5607C40.4624 25.1126 41.2243 26.538 42.3432 27.6569C43.462 28.7757 44.8874 29.5376 46.4393 29.8463C47.9911 30.155 49.5997 29.9965 51.0615 29.391C52.5233 28.7855 53.7727 27.7602 54.6518 26.4446C55.5308 25.129 56 23.5823 56 22C56 19.8783 55.1571 17.8434 53.6569 16.3431C52.1566 14.8429 50.1217 14 48 14Z" fill="currentColor"/>
<path d="M61.2008 37.5998C60.9906 37.7574 60.7515 37.872 60.4971 37.9372C60.2427 38.0024 59.9779 38.0168 59.7179 37.9797C59.4579 37.9426 59.2078 37.8546 58.9818 37.7207C58.7558 37.5869 58.5583 37.4099 58.4008 37.1998C57.1953 35.5794 55.6262 34.2648 53.8199 33.3616C52.0135 32.4584 50.0203 31.992 48.0008 31.9998C47.4703 31.9998 46.9616 31.7891 46.5865 31.414C46.2115 31.0389 46.0008 30.5302 46.0008 29.9998C46.0008 29.4694 46.2115 28.9607 46.5865 28.5856C46.9616 28.2105 47.4703 27.9998 48.0008 27.9998C49.1229 27.9997 50.2226 27.6849 51.1748 27.0911C52.1271 26.4974 52.8937 25.6485 53.3877 24.6409C53.8816 23.6333 54.0831 22.5073 53.9693 21.391C53.8554 20.2746 53.4307 19.2125 52.7435 18.3254C52.0563 17.4382 51.134 16.7616 50.0815 16.3723C49.029 15.9831 47.8884 15.8968 46.7893 16.1233C45.6902 16.3497 44.6767 16.8799 43.8638 17.6535C43.0509 18.4272 42.4713 19.4132 42.1908 20.4998C42.1251 20.7542 42.01 20.9932 41.8519 21.2032C41.6939 21.4131 41.4961 21.5899 41.2697 21.7234C41.0434 21.8569 40.793 21.9444 40.5328 21.9812C40.2726 22.0179 40.0077 22.003 39.7533 21.9373C39.4988 21.8716 39.2598 21.7565 39.0499 21.5985C38.8399 21.4404 38.6632 21.2426 38.5297 21.0163C38.3962 20.7899 38.3086 20.5395 38.2719 20.2793C38.2352 20.0191 38.2501 19.7542 38.3158 19.4998C38.7051 17.9931 39.4408 16.598 40.4642 15.4257C41.4876 14.2533 42.7705 13.336 44.2109 12.7467C45.6512 12.1574 47.2092 11.9124 48.7609 12.0311C50.3125 12.1499 51.8151 12.6292 53.1489 13.4308C54.4828 14.2325 55.6111 15.3344 56.4442 16.6488C57.2773 17.9633 57.792 19.4541 57.9476 21.0025C58.1031 22.5509 57.8951 24.1143 57.3401 25.5682C56.7852 27.0221 55.8985 28.3264 54.7508 29.3773C57.4703 30.5548 59.8344 32.4233 61.6082 34.7973C61.7658 35.0079 61.8803 35.2476 61.9451 35.5026C62.0099 35.7575 62.0238 36.0228 61.9859 36.2831C61.9481 36.5434 61.8593 36.7937 61.7245 37.0197C61.5898 37.2456 61.4118 37.4427 61.2008 37.5998ZM47.7308 52.9998C47.8704 53.2275 47.963 53.4808 48.0031 53.7448C48.0433 54.0089 48.0301 54.2783 47.9644 54.5372C47.8988 54.796 47.7819 55.0391 47.6208 55.2521C47.4596 55.4651 47.2575 55.6437 47.0262 55.7772C46.7949 55.9108 46.5392 55.9967 46.2742 56.0299C46.0092 56.0631 45.7403 56.0428 45.4832 55.9704C45.2261 55.8979 44.9862 55.7747 44.7775 55.608C44.5689 55.4413 44.3957 55.2345 44.2683 54.9998C43.0082 52.867 41.214 51.0996 39.0625 49.8718C36.911 48.644 34.4767 47.9983 31.9995 47.9983C29.5223 47.9983 27.088 48.644 24.9365 49.8718C22.785 51.0996 20.9908 52.867 19.7307 54.9998C19.6057 55.2388 19.4336 55.4501 19.2248 55.6208C19.0161 55.7916 18.7749 55.9184 18.5158 55.9935C18.2568 56.0687 17.9852 56.0907 17.7174 56.0582C17.4496 56.0256 17.1912 55.9393 16.9577 55.8043C16.7242 55.6693 16.5204 55.4885 16.3585 55.2727C16.1967 55.0569 16.0802 54.8106 16.016 54.5486C15.9518 54.2866 15.9413 54.0143 15.9851 53.7481C16.0289 53.482 16.126 53.2274 16.2708 52.9998C18.2097 49.6682 21.1662 47.0465 24.7057 45.5198C22.7141 43.9949 21.2503 41.8842 20.5203 39.4844C19.7902 37.0846 19.8305 34.5163 20.6355 32.1406C21.4406 29.7648 22.9699 27.7011 25.0084 26.2395C27.047 24.7778 29.4923 23.9918 32.0007 23.9918C34.5092 23.9918 36.9545 24.7778 38.9931 26.2395C41.0316 27.7011 42.5609 29.7648 43.366 32.1406C44.171 34.5163 44.2113 37.0846 43.4813 39.4844C42.7512 41.8842 41.2874 43.9949 39.2957 45.5198C42.8353 47.0465 45.7918 49.6682 47.7308 52.9998ZM32.0007 43.9998C33.583 43.9998 35.1297 43.5306 36.4453 42.6516C37.7609 41.7725 38.7863 40.5231 39.3918 39.0613C39.9973 37.5995 40.1557 35.9909 39.847 34.4391C39.5384 32.8872 38.7764 31.4618 37.6576 30.3429C36.5388 29.2241 35.1133 28.4622 33.5615 28.1535C32.0096 27.8448 30.4011 28.0033 28.9393 28.6088C27.4775 29.2143 26.228 30.2396 25.349 31.5552C24.4699 32.8708 24.0007 34.4175 24.0007 35.9998C24.0007 38.1215 24.8436 40.1564 26.3439 41.6566C27.8442 43.1569 29.879 43.9998 32.0007 43.9998ZM18.0007 29.9998C18.0007 29.4694 17.79 28.9607 17.415 28.5856C17.0399 28.2105 16.5312 27.9998 16.0008 27.9998C14.8786 27.9997 13.7789 27.6849 12.8267 27.0911C11.8744 26.4974 11.1078 25.6485 10.6138 24.6409C10.1199 23.6333 9.91837 22.5073 10.0322 21.391C10.1461 20.2746 10.5708 19.2125 11.258 18.3254C11.9453 17.4382 12.8675 16.7616 13.92 16.3723C14.9725 15.9831 16.1131 15.8968 17.2122 16.1233C18.3113 16.3497 19.3248 16.8799 20.1377 17.6535C20.9506 18.4272 21.5302 19.4132 21.8107 20.4998C21.9434 21.0137 22.2747 21.4538 22.7318 21.7234C23.1889 21.993 23.7344 22.0699 24.2482 21.9373C24.7621 21.8047 25.2022 21.4734 25.4718 21.0163C25.7414 20.5591 25.8184 20.0137 25.6857 19.4998C25.2964 17.9931 24.5607 16.598 23.5373 15.4257C22.5139 14.2533 21.231 13.336 19.7906 12.7467C18.3503 12.1574 16.7923 11.9124 15.2406 12.0311C13.689 12.1499 12.1864 12.6292 10.8526 13.4308C9.51871 14.2325 8.39036 15.3344 7.5573 16.6488C6.72424 17.9633 6.20946 19.4541 6.05392 21.0025C5.89838 22.5509 6.10638 24.1143 6.66136 25.5682C7.21634 27.0221 8.10299 28.3264 9.25075 29.3773C6.53396 30.5559 4.17254 32.4244 2.40075 34.7973C2.243 35.0074 2.12818 35.2465 2.06284 35.501C1.99751 35.7555 1.98294 36.0204 2.01997 36.2805C2.05699 36.5406 2.14489 36.7909 2.27865 37.0171C2.4124 37.2432 2.58939 37.4408 2.7995 37.5985C3.00962 37.7563 3.24874 37.8711 3.50323 37.9365C3.75772 38.0018 4.02259 38.0164 4.28271 37.9793C4.54283 37.9423 4.79311 37.8544 5.01926 37.7207C5.24541 37.5869 5.443 37.4099 5.60075 37.1998C6.80622 35.5794 8.37529 34.2648 10.1816 33.3616C11.988 32.4584 13.9812 31.992 16.0008 31.9998C16.5312 31.9998 17.0399 31.7891 17.415 31.414C17.79 31.0389 18.0007 30.5302 18.0007 29.9998Z" fill="currentColor"/>
</svg>
