<svg width="277" height="250" viewBox="0 0 277 250" fill="none" xmlns="http://www.w3.org/2000/svg">
<path d="M276.977 124.66C276.977 137.256 266.765 147.468 254.169 147.468L186.739 147.468L220.731 206.343C227.271 217.671 223.389 232.157 212.061 238.697C200.732 245.238 186.247 241.356 179.706 230.027L126.215 137.378C122.117 130.279 121.989 121.584 125.831 114.385L126.215 113.692L179.706 21.043C186.247 9.71464 200.732 5.83277 212.061 12.373C223.389 18.9135 227.271 33.4001 220.731 44.7285L187.75 101.853L254.169 101.853C266.765 101.853 276.977 112.064 276.977 124.66Z" fill="url(#paint0_linear_835_2958)"/>
<path d="M140.717 84.6702C151.21 95.6361 169.07 102.243 171.503 119.173C175.575 147.475 153.389 151.023 138.706 167.092C117.974 189.767 124.547 201.984 117.417 226.686C107.87 259.753 58.7177 256.543 53.1587 224.034C46.3494 184.174 108.85 181.099 104.153 119.122C100.537 71.4402 51.5873 63.1946 51.8746 33.1693C52.2463 -6.06467 108.107 -11.8264 117.687 23.0482C125.088 49.9477 117.957 60.9136 140.717 84.6871V84.6702Z" fill="#11664E"/>
<circle cx="32.8863" cy="125.333" r="32.8863" fill="#11664E"/>
<defs>
<linearGradient id="paint0_linear_835_2958" x1="276.135" y1="124.62" x2="124.025" y2="124.62" gradientUnits="userSpaceOnUse">
<stop stop-color="#C9FFA8"/>
<stop offset="1" stop-color="#A2DF7D"/>
</linearGradient>
</defs>
</svg>
