<svg width="104" height="73" viewBox="0 0 104 73" fill="none" xmlns="http://www.w3.org/2000/svg">
<g clip-path="url(#clip0_1114_14323)">
<path opacity="0.08" d="M102.336 50.4178L68.7436 33.8279L51.2512 54.8055C44.164 50.3712 28.4921 45.8123 28.4921 45.8123C23.5248 51.682 10.4318 56.8749 10.4318 56.8749L31.8762 68.6143C31.8762 68.6143 41.8963 66.2571 49.1974 62.7329C55.3238 66.1443 68.5297 73.2898 70.105 72.4301C75.2551 69.6139 92.8603 60.0451 102.429 54.8172C104.191 53.8525 104.137 51.3086 102.336 50.4178Z" fill="#0F172A"/>
<path d="M85.882 17.7786V45.5089C85.882 46.6213 85.2869 47.6599 84.3222 48.2201L57.1676 63.8959C56.6853 64.1682 56.1485 64.3121 55.6078 64.3121V33.4544L85.4658 16.2188C85.7342 16.6816 85.882 17.2184 85.882 17.7786Z" fill="currentColor"/>
<path d="M85.462 16.2187L55.6039 33.4544L29.2234 18.2259C29.4918 17.7552 29.8847 17.3623 30.367 17.0823L57.5216 1.40643C58.4863 0.846296 59.6843 0.846296 60.649 1.40643L84.3184 15.0751C84.8007 15.3474 85.1897 15.7481 85.462 16.2187Z" fill="white"/>
<path d="M55.6039 33.4504V64.3081C55.0633 64.3081 54.5265 64.1642 54.0441 63.8919L30.367 50.2271C29.4023 49.667 28.8072 48.6362 28.8072 47.5159V19.7895C28.8072 19.2294 28.955 18.6926 29.2234 18.2219L55.6039 33.4504Z" fill="currentColor" fill-opacity="0.5"/>
<path d="M85.462 16.2188L55.6039 33.4505L29.2234 18.2259" stroke="#0F172A" stroke-width="0.972447" stroke-linecap="round" stroke-linejoin="round"/>
<path d="M55.6038 33.4504V64.312" stroke="#0F172A" stroke-width="0.972447" stroke-linecap="round" stroke-linejoin="round"/>
<path d="M85.462 16.2187C85.7304 16.6816 85.8782 17.2184 85.8782 17.7785V45.5089C85.8782 46.6213 85.283 47.6599 84.3184 48.22L57.1637 63.8959C56.6814 64.1682 56.1446 64.3121 55.6039 64.3121C55.0633 64.3121 54.5265 64.1682 54.0441 63.8959L30.367 50.2311C29.4023 49.6709 28.8072 48.6401 28.8072 47.5199V19.7896C28.8072 19.2294 28.955 18.6926 29.2234 18.222C29.4918 17.7513 29.8847 17.3585 30.367 17.0784L57.5216 1.40643C58.4863 0.846296 59.6843 0.846296 60.649 1.40643L84.3184 15.0751C84.8007 15.3474 85.1897 15.7481 85.462 16.2187Z" stroke="#0F172A" stroke-width="0.972447" stroke-linecap="round" stroke-linejoin="round"/>
<path d="M67.1254 46.5436L68.0901 45.9913L66.6431 43.9336L65.2 47.66L66.1608 47.1038V52.1605L63.294 53.8175V48.7569L64.2586 48.2007L62.8116 46.1469L61.3685 49.8694L62.3293 49.3171V54.3738L61.5047 54.8522V55.9647L66.1608 53.2769L66.9193 52.8412L67.9462 52.2461V51.1297L67.1254 51.6043V46.5436Z" fill="#0F172A"/>
<path d="M71.3498 50.6629L79.7167 45.8318C80.1057 45.6062 80.4247 45.0033 80.4247 44.482V39.4292C80.4247 38.908 80.1096 38.6707 79.7167 38.8963L71.3498 43.7274C70.9608 43.953 70.6418 44.5559 70.6418 45.0772V50.13C70.6418 50.6512 70.9569 50.8885 71.3498 50.6629Z" fill="currentColor" fill-opacity="0.5"/>
<path d="M51.7063 19.3619L46.8402 16.5535C48.1588 15.7911 49.353 15.7055 50.2282 16.184C50.2438 16.1957 50.2632 16.2034 50.2827 16.2151C51.1618 16.7247 51.7063 17.8138 51.7063 19.3658V19.3619Z" fill="#0F172A" fill-opacity="0.4"/>
<path d="M24.47 1.3093L50.2281 16.1839C49.3529 15.7054 48.1549 15.791 46.8401 16.5534C44.1523 18.1054 41.974 21.8785 41.974 24.9826V37.1498C41.974 48.6597 30.3358 53.5803 26.5821 55.7508L0.76947 40.849C4.52312 38.6824 16.1614 33.7579 16.1614 22.248V10.0808C16.1614 6.97672 18.3396 3.20363 21.0275 1.6516C22.3695 0.877534 23.587 0.803628 24.47 1.3093Z" fill="white"/>
<path d="M50.2827 16.2109C51.1618 16.7205 51.7064 17.8096 51.7064 19.3617L46.8403 16.5532" stroke="#0F172A" stroke-width="0.972447" stroke-linecap="round" stroke-linejoin="round"/>
<path d="M50.2281 16.1838L24.47 1.30921C23.587 0.799648 22.3695 0.873554 21.0275 1.65151C18.3396 3.20743 16.1614 6.98052 16.1614 10.0807V22.2479C16.1614 33.7578 4.52312 38.6823 0.76947 40.8489L26.5821 55.7507C30.3358 53.5802 41.974 48.6596 41.974 37.1497V24.9825C41.974 21.8784 44.1523 18.1014 46.8401 16.5533C48.1588 15.7909 49.3529 15.7053 50.2281 16.1838Z" stroke="#0F172A" stroke-width="0.972447" stroke-linecap="round" stroke-linejoin="round"/>
<path d="M50.2282 16.1838C50.2282 16.1838 50.2632 16.2033 50.2827 16.215" stroke="#0F172A" stroke-width="0.972447" stroke-linecap="round" stroke-linejoin="round"/>
<path d="M19.9267 13.4297C19.9267 13.4297 21.7705 14.4916 24.1977 15.8919" stroke="#0F172A" stroke-width="0.972447" stroke-linecap="round" stroke-linejoin="round"/>
<path d="M26.7455 17.3662C30.966 19.8051 35.587 22.4696 35.587 22.4696" stroke="#0F172A" stroke-width="0.972447" stroke-linecap="round" stroke-linejoin="round"/>
<path d="M19.9267 18.646L35.1163 27.4136" stroke="#0F172A" stroke-width="0.972447" stroke-linecap="round" stroke-linejoin="round"/>
<path d="M19.9267 23.8623C19.9267 23.8623 23.9876 26.204 27.858 28.4406" stroke="#0F172A" stroke-width="0.972447" stroke-linecap="round" stroke-linejoin="round"/>
<path d="M30.0441 29.7007C32.6464 31.206 34.7352 32.408 34.7352 32.408" stroke="#0F172A" stroke-width="0.972447" stroke-linecap="round" stroke-linejoin="round"/>
<path d="M19.0555 29.4673L33.3894 37.7448" stroke="#0F172A" stroke-width="0.972447" stroke-linecap="round" stroke-linejoin="round"/>
</g>
<defs>
<clipPath id="clip0_1114_14323">
<rect width="103.433" height="72" fill="white" transform="translate(0.283325 0.5)"/>
</clipPath>
</defs>
</svg>
