<svg width="277" height="251" viewBox="0 0 277 251" fill="none" xmlns="http://www.w3.org/2000/svg">
<path d="M276.979 125.25C276.978 137.846 266.767 148.057 254.171 148.058L186.741 148.058L220.732 206.934C227.273 218.262 223.391 232.748 212.062 239.288C200.734 245.828 186.248 241.946 179.708 230.618L126.217 137.969C122.118 130.87 121.991 122.174 125.833 114.976L126.217 114.283L179.708 21.6338C186.248 10.3055 200.734 6.42376 212.062 12.9639C223.391 19.5043 227.273 33.9899 220.732 45.3184L187.753 102.441L254.171 102.441C266.767 102.442 276.979 112.654 276.979 125.25Z" fill="#11664E"/>
<path d="M140.72 85.2562C151.213 96.2221 169.072 102.829 171.506 119.759C175.578 148.061 153.392 151.609 138.709 167.678C117.977 190.353 124.55 202.569 117.42 227.272C107.873 260.339 58.7206 257.129 53.1616 224.62C46.3523 184.76 108.853 181.685 104.156 119.708C100.54 72.0261 51.5902 63.7805 51.8775 33.7552C52.2492 -5.47873 108.109 -11.2405 117.69 23.6342C125.091 50.5336 117.96 61.4995 140.72 85.2731V85.2562Z" fill="white"/>
<circle cx="32.8863" cy="125.917" r="32.8863" fill="white"/>
</svg>
