<svg width="14" height="14" viewBox="0 0 14 14" fill="none" xmlns="http://www.w3.org/2000/svg">
<path opacity="1" d="M8.73185 3.45325C8.69263 3.30971 8.59828 3.18748 8.46936 3.11319C8.34043 3.03889 8.18737 3.01854 8.04352 3.05658L6.06018 3.58742L3.47018 1.18408L2.75268 1.37658L4.30435 4.05408L2.44352 4.54992L1.70852 3.97825L1.16602 4.12408L2.13435 5.80408L8.32935 4.14742C8.63268 4.05992 8.80768 3.75075 8.73185 3.45325ZM12.2493 5.83325L11.666 6.99992H8.74935L8.16602 5.83325L8.74935 5.24992H9.91602V4.08325H10.4993V5.24992H11.666L12.2493 5.83325ZM12.8327 11.6666V12.8332H1.16602V11.6666H8.74935V7.58325H11.666V11.6666H12.8327Z" fill="currentColor"/>
</svg>
