<svg width="14" height="14" viewBox="0 0 14 14" fill="none" xmlns="http://www.w3.org/2000/svg">
<path opacity="1" d="M7 12.8334C6.40694 12.8334 5.79931 12.7265 5.17708 12.5126C4.55486 12.2987 3.99097 12.007 3.48542 11.6376C2.97986 11.2681 2.56433 10.8355 2.23883 10.3397C1.91333 9.84383 1.75039 9.31397 1.75 8.75008V7.00008L4.08333 8.75008L3.17917 9.65425C3.46111 10.1501 3.90833 10.5779 4.52083 10.9376C5.13333 11.2973 5.76528 11.5258 6.41667 11.623V6.41675H4.66667V5.25008H6.41667V4.56466C6.07639 4.43828 5.79697 4.22672 5.57842 3.93C5.35986 3.63328 5.25039 3.29553 5.25 2.91675C5.25 2.43064 5.42014 2.01744 5.76042 1.67716C6.10069 1.33689 6.51389 1.16675 7 1.16675C7.48611 1.16675 7.89931 1.33689 8.23958 1.67716C8.57986 2.01744 8.75 2.43064 8.75 2.91675C8.75 3.29591 8.64072 3.63386 8.42217 3.93058C8.20361 4.2273 7.924 4.43866 7.58333 4.56466V5.25008H9.33333V6.41675H7.58333V11.623C8.23472 11.5258 8.86667 11.2973 9.47917 10.9376C10.0917 10.5779 10.5389 10.1501 10.8208 9.65425L9.91667 8.75008L12.25 7.00008V8.75008C12.25 9.31397 12.0872 9.84383 11.7617 10.3397C11.4362 10.8355 11.0205 11.2681 10.5146 11.6376C10.0086 12.007 9.44475 12.2987 8.82292 12.5126C8.20108 12.7265 7.59344 12.8334 7 12.8334ZM7 3.50008C7.16528 3.50008 7.30392 3.44428 7.41592 3.33266C7.52792 3.22105 7.58372 3.08241 7.58333 2.91675C7.58294 2.75108 7.52694 2.61264 7.41533 2.50141C7.30372 2.39019 7.16528 2.33419 7 2.33341C6.83472 2.33264 6.69628 2.38864 6.58467 2.50141C6.47306 2.61419 6.41706 2.75264 6.41667 2.91675C6.41628 3.08086 6.47228 3.2195 6.58467 3.33266C6.69706 3.44583 6.8355 3.50164 7 3.50008Z" fill="currentColor"/>
</svg>
