<svg width="24" height="24" viewBox="0 0 24 24" fill="none" xmlns="http://www.w3.org/2000/svg">
<path d="M9.50026 20.9999C10.8803 22.3329 13.1203 22.3329 14.5003 20.9999M17.0003 13.8049C17.0003 13.4589 17.0003 13.2859 17.0523 13.1319C17.2033 12.6839 17.6023 12.5109 18.0023 12.3289C18.4503 12.1239 18.6743 12.0219 18.8973 12.0039C19.1493 11.9839 19.4023 12.0379 19.6183 12.1589C19.9043 12.3189 20.1043 12.6249 20.3083 12.8729C21.2513 14.0189 21.7233 14.5919 21.8953 15.2229C22.0353 15.7329 22.0353 16.2669 21.8953 16.7759C21.6443 17.6979 20.8493 18.4699 20.2603 19.1859C19.9593 19.5509 19.8083 19.7339 19.6183 19.8409C19.3985 19.9627 19.1476 20.0167 18.8973 19.9959C18.6743 19.9779 18.4503 19.8759 18.0013 19.6709C17.6013 19.4889 17.2033 19.3159 17.0523 18.8679C17.0003 18.7139 17.0003 18.5409 17.0003 18.1959V13.8049ZM7.00026 13.8049C7.00026 13.3689 6.98826 12.9779 6.63626 12.6719C6.50826 12.5609 6.33826 12.4839 5.99926 12.3289C5.55026 12.1249 5.32626 12.0219 5.10326 12.0039C4.43626 11.9499 4.07726 12.4059 3.69326 12.8739C2.74926 14.0189 2.27726 14.5919 2.10426 15.2239C1.96525 15.7319 1.96525 16.2679 2.10426 16.7759C2.35626 17.6979 3.15226 18.4699 3.74026 19.1859C4.11126 19.6359 4.46626 20.0469 5.10326 19.9959C5.32626 19.9779 5.55026 19.8759 5.99926 19.6709C6.33926 19.5159 6.50826 19.4389 6.63626 19.3279C6.98826 19.0219 7.00026 18.6309 7.00026 18.1949V13.8049Z" stroke="currentColor" stroke-width="1.5" stroke-linecap="round" stroke-linejoin="round"/>
<path d="M2 16V12C2 6.477 6.477 2 12 2C17.523 2 22 6.477 22 12V16" stroke="currentColor" stroke-width="1.5" stroke-linecap="round" stroke-linejoin="round"/>
</svg>
