<svg width="60" height="60" viewBox="0 0 60 60" fill="none" xmlns="http://www.w3.org/2000/svg">
<path opacity="0.5" d="M35 6.875C39.7675 6.875 43.155 6.88 45.725 7.225C48.2375 7.5625 49.6875 8.1975 50.745 9.255C51.9625 10.4725 52.495 11.4175 52.7875 13.1C53.1175 14.9975 53.125 17.7 53.125 22.5C53.125 22.9973 53.3225 23.4742 53.6742 23.8258C54.0258 24.1775 54.5027 24.375 55 24.375C55.4973 24.375 55.9742 24.1775 56.3258 23.8258C56.6775 23.4742 56.875 22.9973 56.875 22.5V22.26C56.875 17.76 56.875 14.715 56.48 12.455C56.0425 9.9425 55.1075 8.315 53.3975 6.605C51.525 4.73 49.1525 3.9025 46.2225 3.5075C43.3725 3.125 39.735 3.125 35.14 3.125H35C34.5027 3.125 34.0258 3.32254 33.6742 3.67417C33.3225 4.02581 33.125 4.50272 33.125 5C33.125 5.49728 33.3225 5.97419 33.6742 6.32583C34.0258 6.67746 34.5027 6.875 35 6.875ZM5 35.625C5.49728 35.625 5.97419 35.8225 6.32583 36.1742C6.67746 36.5258 6.875 37.0027 6.875 37.5C6.875 42.3 6.8825 45.0025 7.2125 46.9C7.5075 48.5825 8.0375 49.5275 9.255 50.745C10.3125 51.8025 11.7625 52.4375 14.2775 52.775C16.8475 53.12 20.2325 53.125 25 53.125C25.4973 53.125 25.9742 53.3225 26.3258 53.6742C26.6775 54.0258 26.875 54.5027 26.875 55C26.875 55.4973 26.6775 55.9742 26.3258 56.3258C25.9742 56.6775 25.4973 56.875 25 56.875H24.86C20.265 56.875 16.625 56.875 13.7775 56.4925C10.8475 56.0975 8.475 55.2675 6.6025 53.3975C4.8925 51.685 3.9575 50.0575 3.52 47.545C3.125 45.285 3.125 42.2375 3.125 37.74V37.5C3.125 37.0027 3.32254 36.5258 3.67417 36.1742C4.02581 35.8225 4.50272 35.625 5 35.625ZM55 35.625C55.4973 35.625 55.9742 35.8225 56.3258 36.1742C56.6775 36.5258 56.875 37.0027 56.875 37.5V37.74C56.875 42.24 56.875 45.285 56.48 47.545C56.0425 50.0575 55.1075 51.685 53.3975 53.395C51.525 55.27 49.1525 56.0975 46.2225 56.4925C43.3725 56.875 39.735 56.875 35.14 56.875H35C34.5027 56.875 34.0258 56.6775 33.6742 56.3258C33.3225 55.9742 33.125 55.4973 33.125 55C33.125 54.5027 33.3225 54.0258 33.6742 53.6742C34.0258 53.3225 34.5027 53.125 35 53.125C39.7675 53.125 43.155 53.12 45.725 52.775C48.2375 52.4375 49.6875 51.8025 50.745 50.745C51.9625 49.5275 52.495 48.5825 52.7875 46.9C53.1175 45.0025 53.125 42.3 53.125 37.5C53.125 37.0027 53.3225 36.5258 53.6742 36.1742C54.0258 35.8225 54.5027 35.625 55 35.625ZM24.86 3.125H25C25.4973 3.125 25.9742 3.32254 26.3258 3.67417C26.6775 4.02581 26.875 4.50272 26.875 5C26.875 5.49728 26.6775 5.97419 26.3258 6.32583C25.9742 6.67746 25.4973 6.875 25 6.875C20.2325 6.875 16.8475 6.88 14.275 7.225C11.7625 7.5625 10.3125 8.1975 9.255 9.255C8.0375 10.4725 7.505 11.4175 7.2125 13.1C6.8825 14.9975 6.875 17.7 6.875 22.5C6.875 22.9973 6.67746 23.4742 6.32583 23.8258C5.97419 24.1775 5.49728 24.375 5 24.375C4.50272 24.375 4.02581 24.1775 3.67417 23.8258C3.32254 23.4742 3.125 22.9973 3.125 22.5V22.26C3.125 17.76 3.125 14.715 3.52 12.455C3.9575 9.9425 4.8925 8.315 6.6025 6.605C8.475 4.73 10.8475 3.9025 13.7775 3.5075C16.6275 3.125 20.265 3.125 24.86 3.125Z" fill="currentColor"/>
<path d="M30 26.875C29.1712 26.875 28.3763 27.2042 27.7903 27.7903C27.2042 28.3763 26.875 29.1712 26.875 30C26.875 30.8288 27.2042 31.6237 27.7903 32.2097C28.3763 32.7958 29.1712 33.125 30 33.125C30.8288 33.125 31.6237 32.7958 32.2097 32.2097C32.7958 31.6237 33.125 30.8288 33.125 30C33.125 29.1712 32.7958 28.3763 32.2097 27.7903C31.6237 27.2042 30.8288 26.875 30 26.875Z" fill="currentColor"/>
<path fill-rule="evenodd" clip-rule="evenodd" d="M14.73 35.15C13.2425 33.425 12.5 32.5625 12.5 30C12.5 27.4375 13.2425 26.575 14.73 24.85C17.7 21.405 22.68 17.5 30 17.5C37.32 17.5 42.3 21.405 45.27 24.85C46.7575 26.575 47.5 27.4375 47.5 30C47.5 32.5625 46.7575 33.425 45.27 35.15C42.3 38.595 37.32 42.5 30 42.5C22.68 42.5 17.7 38.595 14.73 35.15ZM23.125 30C23.125 28.1766 23.8493 26.428 25.1386 25.1386C26.428 23.8493 28.1766 23.125 30 23.125C31.8234 23.125 33.572 23.8493 34.8614 25.1386C36.1507 26.428 36.875 28.1766 36.875 30C36.875 31.8234 36.1507 33.572 34.8614 34.8614C33.572 36.1507 31.8234 36.875 30 36.875C28.1766 36.875 26.428 36.1507 25.1386 34.8614C23.8493 33.572 23.125 31.8234 23.125 30Z" fill="currentColor"/>
</svg>
