<svg width="30" height="30" viewBox="0 0 30 30" fill="none" xmlns="http://www.w3.org/2000/svg">
<path opacity="0.75" d="M3.75 3.75V27.5L7.5 25L11.25 27.5L15 25L16.625 26.075C16.375 25.35 16.25 24.5625 16.25 23.75C16.2508 22.5503 16.5391 21.3683 17.0908 20.303C17.6425 19.2377 18.4415 18.3201 19.4209 17.6272C20.4003 16.9343 21.5315 16.4862 22.7196 16.3206C23.9078 16.1549 25.1184 16.2764 26.25 16.675V3.75H3.75ZM21.25 8.75V11.25H8.75V8.75H21.25ZM18.75 13.75V16.25H8.75V13.75H18.75ZM19.375 23.75L22.8125 27.5L28.75 21.5375L27.3 19.775L22.8125 24.2625L20.825 22.275L19.375 23.75Z" fill="currentColor"/>
</svg>
