<svg width="61" height="60" viewBox="0 0 61 60" fill="none" xmlns="http://www.w3.org/2000/svg">
<path d="M43.6311 31.2244C42.9211 37.1369 39.0486 39.4994 37.3761 41.2144C35.7011 42.9344 36.0011 43.2769 36.1136 45.7994C36.1324 46.1115 36.0871 46.4241 35.9804 46.718C35.8738 47.012 35.7081 47.2809 35.4935 47.5083C35.279 47.7358 35.0201 47.9168 34.7329 48.0404C34.4457 48.164 34.1363 48.2275 33.8236 48.2269H27.1786C26.8662 48.2264 26.5571 48.1622 26.2703 48.0383C25.9835 47.9143 25.7249 47.7333 25.5104 47.5061C25.2959 47.2789 25.1299 47.0105 25.0226 46.717C24.9152 46.4236 24.8688 46.1114 24.8861 45.7994C24.8861 43.3244 25.1161 42.7494 23.6261 41.2144C21.7261 39.3144 17.2561 36.6319 17.2561 29.2544C17.2447 27.4219 17.613 25.6069 18.3379 23.9238C19.0628 22.2408 20.1284 20.7261 21.4677 19.4753C22.807 18.2245 24.3909 17.2647 26.1196 16.6565C27.8482 16.0482 29.6841 15.8047 31.5116 15.9412C33.339 16.0776 35.1184 16.5912 36.7375 17.4495C38.3566 18.3079 39.7803 19.4923 40.919 20.9281C42.0576 22.364 42.8864 24.0202 43.3532 25.7923C43.82 27.5644 43.9146 29.4139 43.6311 31.2244Z" stroke="currentColor" stroke-width="3.75" stroke-linecap="round" stroke-linejoin="round"/>
<path d="M26.6504 48.0899V51.8699C26.6504 52.9024 27.2254 53.7499 27.9329 53.7499H33.0654C33.7779 53.7499 34.3504 52.8999 34.3504 51.8699V48.0899M28.5504 21.7399C27.0742 21.7405 25.6588 22.3274 24.6152 23.3715C23.5716 24.4155 22.9854 25.8312 22.9854 27.3074M48.8304 29.7599H53.4154M44.2154 14.7299L47.4679 11.4774M46.7154 42.4999L49.9679 45.7499M30.5004 5.94238V9.64988M13.6004 11.4749L16.8304 14.7299M11.1004 45.7499L14.3304 42.4999M12.1704 29.7599H7.58789" stroke="currentColor" stroke-width="3.75" stroke-linecap="round" stroke-linejoin="round"/>
</svg>
