<svg width="24" height="24" viewBox="0 0 24 24" fill="none" xmlns="http://www.w3.org/2000/svg">
<path d="M10.29 21.961H9.39C6.142 21.961 4.517 21.961 3.508 20.936C2.499 19.911 2.5 18.261 2.5 14.961V9.961C2.5 6.661 2.5 5.011 3.51 3.987C4.517 2.96 6.142 2.96 9.39 2.96H12.343C15.592 2.96 17.49 3.016 18.499 4.04C19.509 5.066 19.499 6.66 19.499 9.96V11.147M15.945 2V4M10.945 2V4M5.945 2V4M7 15H11M7 10H15" stroke="currentColor" stroke-width="1.5" stroke-linecap="round" stroke-linejoin="round"/>
<path opacity="0.93" d="M20.7601 14.8791C19.8541 13.8641 19.3111 13.9251 18.7081 14.1061C18.2851 14.1661 16.8371 15.8561 16.2331 16.3961C15.2421 17.3741 14.2461 18.3821 14.1811 18.5141C13.9931 18.8191 13.8191 19.3591 13.7341 19.9631C13.5771 20.8691 13.3511 21.8881 13.6371 21.9761C13.9231 22.0641 14.7241 21.8961 15.6291 21.7631C16.2331 21.6531 16.6551 21.5331 16.9571 21.3521C17.3801 21.0981 18.1641 20.2051 19.5171 18.8761C20.3641 17.9831 21.1821 17.3661 21.4241 16.7631C21.6651 15.8571 21.3041 15.3741 20.7601 14.8791Z" stroke="currentColor" stroke-width="1.5" stroke-linecap="round" stroke-linejoin="round"/>
</svg>
