<svg width="24" height="24" viewBox="0 0 24 24" fill="none" xmlns="http://www.w3.org/2000/svg">
<path d="M15 15H22.5V16.5H15V15ZM15 18H22.5V19.5H15V18ZM15 21H22.5V22.5H15V21ZM12 15C11.6035 15.0092 11.2093 14.938 10.8411 14.7905C10.473 14.643 10.1386 14.4223 9.85812 14.1419C9.57768 13.8615 9.35704 13.527 9.20954 13.1589C9.06205 12.7907 8.99077 12.3965 9 12C8.99077 11.6035 9.06205 11.2093 9.20954 10.8411C9.35704 10.473 9.57768 10.1386 9.85812 9.85812C10.1386 9.57768 10.473 9.35704 10.8411 9.20954C11.2093 9.06205 11.6035 8.99077 12 9C12.3965 8.99077 12.7907 9.06205 13.1589 9.20954C13.527 9.35704 13.8615 9.57768 14.1419 9.85812C14.4223 10.1386 14.643 10.473 14.7905 10.8411C14.938 11.2093 15.0092 11.6035 15 12H16.5C16.5 11.11 16.2361 10.24 15.7416 9.49994C15.2471 8.75991 14.5443 8.18314 13.7221 7.84254C12.8998 7.50195 11.995 7.41283 11.1221 7.58647C10.2492 7.7601 9.44736 8.18868 8.81802 8.81802C8.18868 9.44736 7.7601 10.2492 7.58647 11.1221C7.41283 11.995 7.50195 12.8998 7.84254 13.7221C8.18314 14.5443 8.75991 15.2471 9.49994 15.7416C10.24 16.2361 11.11 16.5 12 16.5V15Z" fill="currentColor"/>
<path d="M21.9784 8.283L20.2084 5.217C20.035 4.91646 19.7628 4.68531 19.4382 4.56291C19.1135 4.44052 18.7565 4.43446 18.4279 4.54575L16.6024 5.16375C16.2878 4.95186 15.9591 4.76191 15.6184 4.59525L15.2404 2.70525C15.1723 2.36535 14.9885 2.05953 14.7204 1.8398C14.4523 1.62007 14.1163 1.5 13.7696 1.5H10.2296C9.88287 1.50004 9.54682 1.62022 9.27868 1.84009C9.01053 2.05997 8.82685 2.36596 8.75889 2.706L8.38089 4.59525C8.03646 4.76024 7.70391 4.94894 7.38563 5.16L5.57064 4.54575C5.24221 4.43485 4.88551 4.44111 4.56119 4.56349C4.23687 4.68586 3.96494 4.91679 3.79164 5.217L2.02164 8.283C1.84824 8.58322 1.7842 8.93423 1.8404 9.27634C1.8966 9.61845 2.06956 9.93053 2.32989 10.1595L3.77814 11.4323C3.76539 11.6213 3.74964 11.8088 3.74964 12C3.74964 12.1935 3.75664 12.385 3.77064 12.5745L2.33064 13.8405C2.07007 14.0693 1.89682 14.3813 1.84034 14.7234C1.78387 15.0655 1.84767 15.4166 2.02089 15.717L3.79089 18.783C3.96424 19.0835 4.23643 19.3147 4.56108 19.4371C4.88573 19.5595 5.24276 19.5655 5.57138 19.4543L7.39688 18.8363C7.71141 19.0484 8.04019 19.2386 8.38089 19.4055L8.75814 21.294C8.82613 21.6342 9.00992 21.9403 9.27822 22.1601C9.54652 22.38 9.88274 22.5001 10.2296 22.5H11.9996V21H10.2296L9.69714 18.3375C8.96054 18.0638 8.27674 17.6649 7.67588 17.1585L5.09064 18.033L3.32064 14.967L5.36439 13.1708C5.22415 12.3952 5.22237 11.6009 5.35914 10.8247L3.32064 9.03225L5.09064 5.967L7.66089 6.837C8.26572 6.32942 8.95492 5.93189 9.69714 5.6625L10.2296 3H13.7696L14.3021 5.6625C15.0387 5.93621 15.7225 6.33507 16.3234 6.8415L18.9086 5.967L20.6786 9.033L18.5801 10.872L19.5686 12L21.6686 10.1595C21.9292 9.93072 22.1025 9.61873 22.1589 9.27662C22.2154 8.9345 22.1516 8.58338 21.9784 8.283Z" fill="currentColor"/>
</svg>
