<svg width="30" height="30" viewBox="0 0 30 30" fill="none" xmlns="http://www.w3.org/2000/svg">
<path opacity="0.75" d="M21.5938 22.6562L21.0625 22.125C20.875 21.9375 20.6512 21.8438 20.3913 21.8438C20.1313 21.8438 19.9071 21.9375 19.7188 22.125C19.5304 22.3125 19.4367 22.5312 19.4375 22.7812C19.4383 23.0312 19.5321 23.25 19.7188 23.4375L20.9375 24.6562C21.125 24.8438 21.3438 24.9375 21.5938 24.9375C21.8438 24.9375 22.0625 24.8438 22.25 24.6562L25.2812 21.6875C25.4688 21.5 25.5625 21.2758 25.5625 21.015C25.5625 20.7542 25.4688 20.5304 25.2812 20.3438C25.0938 20.1571 24.8696 20.0633 24.6087 20.0625C24.3479 20.0617 24.1242 20.1554 23.9375 20.3438L21.5938 22.6562ZM21.25 11.25C21.6042 11.25 21.9012 11.13 22.1412 10.89C22.3812 10.65 22.5008 10.3533 22.5 10C22.4992 9.64667 22.3792 9.35 22.14 9.11C21.9008 8.87 21.6042 8.75 21.25 8.75H8.75C8.39583 8.75 8.09917 8.87 7.86 9.11C7.62083 9.35 7.50083 9.64667 7.5 10C7.49917 10.3533 7.61917 10.6504 7.86 10.8913C8.10083 11.1321 8.3975 11.2517 8.75 11.25H21.25ZM22.5 28.75C20.7708 28.75 19.2971 28.1404 18.0788 26.9213C16.8604 25.7021 16.2508 24.2283 16.25 22.5C16.2492 20.7717 16.8588 19.2979 18.0788 18.0788C19.2987 16.8596 20.7725 16.25 22.5 16.25C24.2275 16.25 25.7017 16.8596 26.9225 18.0788C28.1433 19.2979 28.7525 20.7717 28.75 22.5C28.7475 24.2283 28.1379 25.7025 26.9213 26.9225C25.7046 28.1425 24.2308 28.7517 22.5 28.75ZM3.75 27.3438V6.25C3.75 5.5625 3.995 4.97417 4.485 4.485C4.975 3.99583 5.56333 3.75083 6.25 3.75H23.75C24.4375 3.75 25.0263 3.995 25.5163 4.485C26.0063 4.975 26.2508 5.56333 26.25 6.25V13.125C26.25 13.4792 26.1042 13.7658 25.8125 13.985C25.5208 14.2042 25.1979 14.2612 24.8438 14.1562C24.2604 14.0104 23.6667 13.9062 23.0625 13.8438C22.4583 13.7812 21.8542 13.75 21.25 13.75H8.75C8.39583 13.75 8.09917 13.87 7.86 14.11C7.62083 14.35 7.50083 14.6467 7.5 15C7.49917 15.3533 7.61917 15.6504 7.86 15.8913C8.10083 16.1321 8.3975 16.2517 8.75 16.25H16.375C16.0208 16.6042 15.6929 16.9896 15.3912 17.4062C15.0896 17.8229 14.8238 18.2708 14.5938 18.75H8.75C8.39583 18.75 8.09917 18.87 7.86 19.11C7.62083 19.35 7.50083 19.6467 7.5 20C7.49917 20.3533 7.61917 20.6504 7.86 20.8912C8.10083 21.1321 8.3975 21.2517 8.75 21.25H13.8438C13.8021 21.4583 13.7762 21.6617 13.7662 21.86C13.7562 22.0583 13.7508 22.2717 13.75 22.5C13.75 23.0417 13.8021 23.5729 13.9062 24.0938C14.0104 24.6146 14.1458 25.1354 14.3125 25.6562C14.4167 25.8854 14.375 26.0679 14.1875 26.2037C14 26.3396 13.8229 26.3237 13.6562 26.1562L13.5625 26.0625C13.4375 25.9375 13.2917 25.875 13.125 25.875C12.9583 25.875 12.8125 25.9375 12.6875 26.0625L11.6875 27.0625C11.5625 27.1875 11.4167 27.25 11.25 27.25C11.0833 27.25 10.9375 27.1875 10.8125 27.0625L9.8125 26.0625C9.6875 25.9375 9.54167 25.875 9.375 25.875C9.20833 25.875 9.0625 25.9375 8.9375 26.0625L7.9375 27.0625C7.8125 27.1875 7.66667 27.25 7.5 27.25C7.33333 27.25 7.1875 27.1875 7.0625 27.0625L6.0625 26.0625C5.9375 25.9375 5.79167 25.875 5.625 25.875C5.45833 25.875 5.3125 25.9375 5.1875 26.0625L4.1875 27.0625L3.75 27.3438Z" fill="currentColor"/>
</svg>
