<svg width="64" height="64" viewBox="0 0 64 64" fill="none" xmlns="http://www.w3.org/2000/svg">
<g clip-path="url(#clip0_617_39927)">
<path opacity="0.2" fill-rule="evenodd" clip-rule="evenodd" d="M33.2311 63.9999C50.2256 63.9999 64.0004 50.2251 64.0004 33.2307C64.0004 16.2362 50.2256 2.46143 33.2311 2.46143C16.2367 2.46143 2.46191 16.2362 2.46191 33.2307C2.46191 50.2251 16.2367 63.9999 33.2311 63.9999ZM33.2311 59.0768C47.5056 59.0768 59.0773 47.5051 59.0773 33.2307C59.0773 18.9562 47.5056 7.3845 33.2311 7.3845C18.9567 7.3845 7.38499 18.9562 7.38499 33.2307C7.38499 47.5051 18.9567 59.0768 33.2311 59.0768Z" fill="currentColor"/>
<g opacity="0.2">
<path d="M52.9235 34.4615C52.9235 36.7243 52.4778 38.9649 51.6118 41.0554C50.7459 43.1459 49.4767 45.0455 47.8767 46.6455C46.2767 48.2455 44.3771 49.5147 42.2866 50.3806C40.1961 51.2466 37.9555 51.6923 35.6927 51.6923C33.4299 51.6923 31.1893 51.2466 29.0988 50.3806C27.0082 49.5147 25.1087 48.2455 23.5087 46.6455C21.9087 45.0455 20.6395 43.1459 19.7735 41.0554C18.9076 38.9649 18.4619 36.7243 18.4619 34.4615C18.4619 29.8916 20.2773 25.5089 23.5087 22.2775C26.7401 19.0461 31.1228 17.2307 35.6927 17.2307C40.2626 17.2307 44.6453 19.0461 47.8767 22.2775C51.1081 25.5089 52.9235 29.8916 52.9235 34.4615Z" fill="currentColor"/>
<path fill-rule="evenodd" clip-rule="evenodd" d="M35.6927 46.7692C38.9569 46.7692 42.0874 45.4725 44.3955 43.1643C46.7037 40.8562 48.0004 37.7257 48.0004 34.4615C48.0004 31.1973 46.7037 28.0668 44.3955 25.7586C42.0874 23.4505 38.9569 22.1538 35.6927 22.1538C32.4285 22.1538 29.298 23.4505 26.9898 25.7586C24.6817 28.0668 23.385 31.1973 23.385 34.4615C23.385 37.7257 24.6817 40.8562 26.9898 43.1643C29.298 45.4725 32.4285 46.7692 35.6927 46.7692ZM35.6927 51.6923C40.2626 51.6923 44.6453 49.8769 47.8767 46.6455C51.1081 43.4141 52.9235 39.0314 52.9235 34.4615C52.9235 29.8916 51.1081 25.5089 47.8767 22.2775C44.6453 19.0461 40.2626 17.2307 35.6927 17.2307C31.1228 17.2307 26.7401 19.0461 23.5087 22.2775C20.2773 25.5089 18.4619 29.8916 18.4619 34.4615C18.4619 39.0314 20.2773 43.4141 23.5087 46.6455C26.7401 49.8769 31.1228 51.6923 35.6927 51.6923Z" fill="currentColor"/>
</g>
<path fill-rule="evenodd" clip-rule="evenodd" d="M21.1803 20.8C19.4793 22.4766 18.1791 24.516 17.3769 26.7657C16.5747 29.0154 16.2913 31.4173 16.5477 33.792C16.5647 33.9528 16.5498 34.1154 16.5039 34.2704C16.4581 34.4255 16.3821 34.57 16.2804 34.6957C16.1787 34.8215 16.0532 34.9259 15.9111 35.0031C15.769 35.0804 15.6131 35.1288 15.4523 35.1458C15.2915 35.1628 15.1289 35.1479 14.9739 35.102C14.8188 35.0562 14.6743 34.9802 14.5485 34.8785C14.4228 34.7768 14.3184 34.6513 14.2412 34.5092C14.1639 34.3671 14.1155 34.2112 14.0985 34.0504C13.803 31.3075 14.1311 28.5333 15.0582 25.935C15.9852 23.3366 17.4874 20.9813 19.4523 19.0449C26.6819 11.9138 38.3446 12.0295 45.5003 19.2861C52.656 26.5427 52.6093 38.203 45.3773 45.3341C42.0291 48.6402 37.5355 50.5286 32.8308 50.6067C31.0519 50.6394 29.2777 50.4147 27.5631 49.9397C27.2484 49.8528 26.9811 49.6446 26.82 49.3606C26.6589 49.0767 26.6172 48.7405 26.704 48.4258C26.7908 48.1111 26.9991 47.8438 27.283 47.6827C27.5669 47.5216 27.9032 47.4799 28.2179 47.5667C29.7049 47.9788 31.2437 48.1737 32.7865 48.1452C36.8603 48.0812 40.752 46.4462 43.6493 43.5815C49.904 37.4129 49.9557 27.3107 43.7477 21.0141C37.5397 14.7175 27.4351 14.6313 21.1803 20.8Z" fill="currentColor"/>
<path fill-rule="evenodd" clip-rule="evenodd" d="M16.2328 35.3553C16.1251 35.4759 15.9948 35.5741 15.8492 35.6443C15.7036 35.7145 15.5456 35.7553 15.3843 35.7645C15.2229 35.7736 15.0613 35.7509 14.9087 35.6976C14.7561 35.6443 14.6155 35.5614 14.4949 35.4538L10.2611 31.6876C10.1309 31.5831 10.0234 31.4533 9.945 31.3059C9.86661 31.1586 9.819 30.9969 9.80507 30.8305C9.79115 30.6642 9.81119 30.4968 9.86399 30.3385C9.91679 30.1802 10.0012 30.0342 10.1122 29.9095C10.2232 29.7849 10.3583 29.6841 10.5095 29.6133C10.6606 29.5425 10.8246 29.5032 10.9914 29.4977C11.1582 29.4923 11.3244 29.5208 11.4798 29.5816C11.6352 29.6424 11.7767 29.7342 11.8955 29.8513L16.1294 33.6175C16.2503 33.7248 16.3489 33.8548 16.4196 34.0003C16.4902 34.1457 16.5315 34.3036 16.5411 34.465C16.5507 34.6264 16.5284 34.7881 16.4755 34.9408C16.4226 35.0936 16.3401 35.2344 16.2328 35.3553Z" fill="currentColor"/>
<path fill-rule="evenodd" clip-rule="evenodd" d="M14.3253 35.1999C14.4222 35.3292 14.5437 35.4381 14.6828 35.5205C14.8219 35.6028 14.9758 35.657 15.1358 35.6798C15.2958 35.7027 15.4588 35.6938 15.6153 35.6537C15.7719 35.6136 15.919 35.543 16.0483 35.4461L20.9714 31.7538C21.1007 31.6568 21.2096 31.5353 21.292 31.3962C21.3743 31.2571 21.4285 31.1032 21.4514 30.9432C21.4742 30.7832 21.4653 30.6203 21.4252 30.4637C21.3851 30.3071 21.3145 30.16 21.2176 30.0307C21.1206 29.9014 20.9991 29.7924 20.86 29.7101C20.7209 29.6277 20.567 29.5736 20.407 29.5507C20.247 29.5279 20.0841 29.5368 19.9275 29.5769C19.7709 29.617 19.6238 29.6875 19.4945 29.7845L14.5714 33.4768C14.3103 33.6727 14.1376 33.9642 14.0915 34.2874C14.0453 34.6105 14.1294 34.9388 14.3253 35.1999ZM31.9991 23.3845C32.3255 23.3845 32.6386 23.5142 32.8694 23.745C33.1002 23.9758 33.2299 24.2889 33.2299 24.6153V33.2307C33.2299 33.5571 33.1002 33.8701 32.8694 34.101C32.6386 34.3318 32.3255 34.4614 31.9991 34.4614C31.6727 34.4614 31.3596 34.3318 31.1288 34.101C30.898 33.8701 30.7683 33.5571 30.7683 33.2307V24.6153C30.7683 24.2889 30.898 23.9758 31.1288 23.745C31.3596 23.5142 31.6727 23.3845 31.9991 23.3845Z" fill="currentColor"/>
<path fill-rule="evenodd" clip-rule="evenodd" d="M40.6157 33.2308C40.6157 33.5572 40.486 33.8702 40.2552 34.1011C40.0244 34.3319 39.7113 34.4615 39.3849 34.4615H32.0003C31.6739 34.4615 31.3608 34.3319 31.13 34.1011C30.8992 33.8702 30.7695 33.5572 30.7695 33.2308C30.7695 32.9043 30.8992 32.5913 31.13 32.3605C31.3608 32.1297 31.6739 32 32.0003 32H39.3849C39.7113 32 40.0244 32.1297 40.2552 32.3605C40.486 32.5913 40.6157 32.9043 40.6157 33.2308Z" fill="currentColor"/>
<path fill-rule="evenodd" clip-rule="evenodd" d="M31.9997 60.3076C47.6329 60.3076 60.3074 47.6332 60.3074 31.9999C60.3074 16.3667 47.6329 3.69225 31.9997 3.69225C16.3665 3.69225 3.69201 16.3667 3.69201 31.9999C3.69201 47.6332 16.3665 60.3076 31.9997 60.3076ZM31.9997 62.7692C48.9942 62.7692 62.7689 48.9944 62.7689 31.9999C62.7689 15.0055 48.9942 1.23071 31.9997 1.23071C15.0052 1.23071 1.23047 15.0055 1.23047 31.9999C1.23047 48.9944 15.0052 62.7692 31.9997 62.7692Z" fill="currentColor"/>
</g>
<defs>
<clipPath id="clip0_617_39927">
<rect width="64" height="64" fill="white"/>
</clipPath>
</defs>
</svg>
