<svg width="24" height="24" viewBox="0 0 24 24" fill="none" xmlns="http://www.w3.org/2000/svg">
<path fill-rule="evenodd" clip-rule="evenodd" d="M14.2118 17.776C14.7317 17.5161 15.3019 17.3726 15.8829 17.3555C16.4639 17.3384 17.0416 17.4481 17.5758 17.677L17.7898 17.777L20.4478 19.105C20.6761 19.219 20.8522 19.416 20.9401 19.6556C21.0279 19.8952 21.0208 20.1593 20.9202 20.3938C20.8196 20.6284 20.6331 20.8156 20.399 20.9171C20.1649 21.0187 19.9008 21.0268 19.6608 20.94L19.5538 20.894L16.8948 19.565C16.6455 19.4403 16.3728 19.3692 16.0944 19.3561C15.8159 19.343 15.5378 19.3883 15.2778 19.489L15.1058 19.565L13.7898 20.224C13.2698 20.4839 12.6993 20.6273 12.1181 20.6442C11.537 20.6612 10.9591 20.5512 10.4248 20.322L10.2118 20.224L8.89483 19.565C8.64548 19.4403 8.37282 19.3692 8.09436 19.3561C7.81589 19.343 7.53777 19.3883 7.27783 19.489L7.10583 19.565L4.44783 20.895C4.21948 21.0105 3.95555 21.034 3.71037 20.9608C3.46519 20.8876 3.25741 20.7231 3.12979 20.5013C3.00217 20.2796 2.96443 20.0173 3.02434 19.7685C3.08425 19.5197 3.23724 19.3034 3.45183 19.164L3.55383 19.105L6.21183 17.776C6.73169 17.5161 7.30195 17.3726 7.88291 17.3555C8.46387 17.3384 9.04158 17.4481 9.57583 17.677L9.78983 17.777L11.1058 18.435C11.3553 18.5598 11.6281 18.631 11.9068 18.6441C12.1854 18.6572 12.4637 18.6119 12.7238 18.511L12.8948 18.435L14.2118 17.776ZM13.0008 2C13.266 2 13.5204 2.10536 13.7079 2.29289C13.8955 2.48043 14.0008 2.73478 14.0008 3V4.32L17.3298 4.874C17.7966 4.95209 18.2206 5.1932 18.5264 5.55446C18.8322 5.91572 18.9999 6.37371 18.9998 6.847V10.279L21.0598 10.965C21.2239 11.0197 21.3748 11.1079 21.503 11.224C21.6313 11.34 21.734 11.4814 21.8048 11.6392C21.8756 11.7971 21.9128 11.9678 21.9142 12.1408C21.9156 12.3137 21.8811 12.4851 21.8128 12.644L19.6438 17.704L17.7898 16.776C17.2344 16.4982 16.6219 16.3536 16.0008 16.3536C15.3798 16.3536 14.7673 16.4982 14.2118 16.776L12.8948 17.435C12.6171 17.5739 12.3108 17.6462 12.0003 17.6462C11.6898 17.6462 11.3836 17.5739 11.1058 17.435L9.78983 16.776C9.23437 16.4982 8.62186 16.3536 8.00083 16.3536C7.37979 16.3536 6.76729 16.4982 6.21183 16.776L4.94183 17.412L2.28383 12.761C2.19208 12.6004 2.1371 12.4215 2.12285 12.2371C2.10861 12.0527 2.13546 11.8675 2.20146 11.6947C2.26747 11.522 2.37098 11.366 2.50454 11.2381C2.6381 11.1102 2.79838 11.0135 2.97383 10.955L5.00083 10.279V6.847C5.00073 6.37371 5.16848 5.91572 5.47426 5.55446C5.78004 5.1932 6.20402 4.95209 6.67083 4.874L10.0008 4.32V3C10.0008 2.73478 10.1062 2.48043 10.2937 2.29289C10.4813 2.10536 10.7356 2 11.0008 2H13.0008ZM12.0008 6.014L7.00083 6.847V9.613L11.3678 8.157C11.7784 8.02014 12.2223 8.02014 12.6328 8.157L17.0008 9.613V6.847L12.0008 6.014Z" fill="currentColor" />
</svg>
