<svg width="24" height="24" viewBox="0 0 24 24" fill="none" xmlns="http://www.w3.org/2000/svg">
<path d="M3 7.5H6C6.39782 7.5 6.77936 7.34196 7.06066 7.06066C7.34196 6.77936 7.5 6.39782 7.5 6V3C7.5 2.60218 7.34196 2.22064 7.06066 1.93934C6.77936 1.65804 6.39782 1.5 6 1.5H3C2.60218 1.5 2.22064 1.65804 1.93934 1.93934C1.65804 2.22064 1.5 2.60218 1.5 3V6C1.5 6.39782 1.65804 6.77936 1.93934 7.06066C2.22064 7.34196 2.60218 7.5 3 7.5ZM3 3H6V6H3V3ZM21 16.5H18C17.6022 16.5 17.2206 16.658 16.9393 16.9393C16.658 17.2206 16.5 17.6022 16.5 18V21C16.5 21.3978 16.658 21.7794 16.9393 22.0607C17.2206 22.342 17.6022 22.5 18 22.5H21C21.3978 22.5 21.7794 22.342 22.0607 22.0607C22.342 21.7794 22.5 21.3978 22.5 21V18C22.5 17.6022 22.342 17.2206 22.0607 16.9393C21.7794 16.658 21.3978 16.5 21 16.5ZM21 21H18V18H21V21ZM16.0605 9.4395L15 10.5L19.5 15L24 10.5L22.9395 9.4395L20.25 12.129V5.25C20.25 4.85218 20.092 4.47064 19.8107 4.18934C19.5294 3.90804 19.1478 3.75 18.75 3.75H9V5.25H18.75V12.129L16.0605 9.4395ZM5.25 11.871L7.9395 14.5605L9 13.5L4.5 9L0 13.5L1.0605 14.5605L3.75 11.871V18.75C3.75 19.1478 3.90804 19.5294 4.18934 19.8107C4.47064 20.092 4.85218 20.25 5.25 20.25H15V18.75H5.25V11.871Z" fill="currentColor"/>
</svg>
