<svg width="72" height="73" viewBox="0 0 72 73" fill="none" xmlns="http://www.w3.org/2000/svg">
<path opacity="0.5" d="M53.0622 65.7315C51.7122 65.7315 50.4008 65.2807 49.3362 64.4505L37.2462 55.0845L29.1402 64.0335C28.7834 64.4268 28.3286 64.7184 27.8222 64.8784C27.3159 65.0384 26.7762 65.0612 26.2582 64.9443C25.7401 64.8275 25.2624 64.5752 24.8738 64.2134C24.4852 63.8515 24.1996 63.3929 24.0462 62.8845L17.9862 42.8385L7.10817 39.0585C5.93359 38.6497 4.91128 37.893 4.17715 36.889C3.44303 35.8851 3.03186 34.6815 2.99832 33.4383C2.96478 32.195 3.31046 30.971 3.98939 29.9289C4.66832 28.8869 5.64834 28.0762 6.79917 27.6045L60.5592 5.89955C61.5849 5.48241 62.7045 5.35109 63.7989 5.51956C64.8933 5.68802 65.9216 6.14998 66.7744 6.85628C67.6272 7.56258 68.2726 8.48683 68.642 9.53071C69.0114 10.5746 69.0909 11.6991 68.8722 12.7845L59.0832 60.8296C58.7934 62.2133 58.0367 63.4552 56.9399 64.3472C55.843 65.2392 54.4729 65.7269 53.0592 65.7285L53.0622 65.7315Z" fill="currentColor"/>
<path d="M26.9212 65.0176C26.2775 65.0176 25.6508 64.8105 25.1338 64.4269C24.6168 64.0434 24.2369 63.5037 24.0502 62.8876L17.5462 41.4076C17.3441 40.7386 17.3818 40.0201 17.6529 39.376C17.924 38.7319 18.4115 38.2026 19.0312 37.8796L50.7322 21.3736C51.3679 21.0407 52.1018 20.9467 52.8009 21.1086C53.4999 21.2705 54.1178 21.6777 54.5424 22.2561C54.9669 22.8346 55.1701 23.546 55.1151 24.2615C55.06 24.9769 54.7503 25.6489 54.2422 26.1556L32.9902 47.4046L29.8582 62.6206C29.7242 63.274 29.3762 63.8641 28.8693 64.2977C28.3624 64.7312 27.7255 64.9835 27.0592 65.0146L26.9212 65.0176Z" fill="currentColor"/>
</svg>
