<svg
  width="30"
  height="30"
  viewBox="0 0 30 30"
  fill="none"
  xmlns="http://www.w3.org/2000/svg"
>
  <path
    fill-rule="evenodd"
    clip-rule="evenodd"
    d="M0.375 15C0.375 6.92284 6.92284 0.375 15 0.375C23.0772 0.375 29.625 6.92284 29.625 15C29.625 23.0772 23.0772 29.625 15 29.625C6.92284 29.625 0.375 23.0772 0.375 15ZM15 9.375C15.6213 9.375 16.125 9.87868 16.125 10.5V16.125C16.125 16.7463 15.6213 17.25 15 17.25C14.3787 17.25 13.875 16.7463 13.875 16.125V10.5C13.875 9.87868 14.3787 9.375 15 9.375ZM15 21.75C15.6213 21.75 16.125 21.2463 16.125 20.625C16.125 20.0037 15.6213 19.5 15 19.5C14.3787 19.5 13.875 20.0037 13.875 20.625C13.875 21.2463 14.3787 21.75 15 21.75Z"
    fill="currentColor"
  />
</svg>
