<svg width="24" height="24" viewBox="0 0 24 24" fill="none" xmlns="http://www.w3.org/2000/svg">
<path d="M4 6C4.53043 6 5.03914 5.78929 5.41421 5.41421C5.78929 5.03914 6 4.53043 6 4C6 3.46957 5.78929 2.96086 5.41421 2.58579C5.03914 2.21071 4.53043 2 4 2C3.46957 2 2.96086 2.21071 2.58579 2.58579C2.21071 2.96086 2 3.46957 2 4C2 4.53043 2.21071 5.03914 2.58579 5.41421C2.96086 5.78929 3.46957 6 4 6ZM5 21C5.79565 21 6.55871 20.6839 7.12132 20.1213C7.68393 19.5587 8 18.7956 8 18C8 17.2044 7.68393 16.4413 7.12132 15.8787C6.55871 15.3161 5.79565 15 5 15C4.20435 15 3.44129 15.3161 2.87868 15.8787C2.31607 16.4413 2 17.2044 2 18C2 18.7956 2.31607 19.5587 2.87868 20.1213C3.44129 20.6839 4.20435 21 5 21ZM19 22C19.7956 22 20.5587 21.6839 21.1213 21.1213C21.6839 20.5587 22 19.7956 22 19C22 18.2044 21.6839 17.4413 21.1213 16.8787C20.5587 16.3161 19.7956 16 19 16C18.2044 16 17.4413 16.3161 16.8787 16.8787C16.3161 17.4413 16 18.2044 16 19C16 19.7956 16.3161 20.5587 16.8787 21.1213C17.4413 21.6839 18.2044 22 19 22ZM11 14C12.0609 14 13.0783 13.5786 13.8284 12.8284C14.5786 12.0783 15 11.0609 15 10C15 8.93913 14.5786 7.92172 13.8284 7.17157C13.0783 6.42143 12.0609 6 11 6C9.93913 6 8.92172 6.42143 8.17157 7.17157C7.42143 7.92172 7 8.93913 7 10C7 11.0609 7.42143 12.0783 8.17157 12.8284C8.92172 13.5786 9.93913 14 11 14ZM17 6C17.5304 6 18.0391 5.78929 18.4142 5.41421C18.7893 5.03914 19 4.53043 19 4C19 3.46957 18.7893 2.96086 18.4142 2.58579C18.0391 2.21071 17.5304 2 17 2C16.4696 2 15.9609 2.21071 15.5858 2.58579C15.2107 2.96086 15 3.46957 15 4C15 4.53043 15.2107 5.03914 15.5858 5.41421C15.9609 5.78929 16.4696 6 17 6Z" stroke="currentColor" stroke-width="2" stroke-linecap="round" stroke-linejoin="round"/>
<path d="M5.5 5.5L7.5 7.5M15 6L14 7M17 16.75L14 13M7 15.5L9 13.5" stroke="currentColor" stroke-width="2" stroke-linecap="round" stroke-linejoin="round"/>
</svg>
