<svg width="64" height="64" viewBox="0 0 64 64" fill="none" xmlns="http://www.w3.org/2000/svg">
<g opacity="0.2">
<path fill-rule="evenodd" clip-rule="evenodd" d="M13.3287 13.1678C12.5551 12.8197 11.6749 12.793 10.8817 13.0937C10.0884 13.3943 9.44695 13.9976 9.09834 14.771L2.43274 29.5678C2.08444 30.341 2.05731 31.2209 2.35731 32.0141C2.65732 32.8073 3.25992 33.449 4.03274 33.7982L8.51274 35.8142C8.89578 35.9872 9.30913 36.083 9.72919 36.0962C10.1493 36.1094 10.5678 36.0397 10.9609 35.8911C11.3541 35.7425 11.7141 35.518 12.0204 35.2302C12.3268 34.9425 12.5734 34.5973 12.7463 34.2142L19.4087 19.4206C19.7568 18.647 19.7835 17.7668 19.4829 16.9735C19.1822 16.1802 18.5789 15.5388 17.8055 15.1902L13.3287 13.1678ZM7.72874 31.5838C7.98409 31.7095 8.26213 31.7825 8.54629 31.7986C8.83046 31.8146 9.11494 31.7733 9.38281 31.6771C9.65068 31.5809 9.89645 31.4318 10.1055 31.2386C10.3145 31.0455 10.4826 30.8123 10.5996 30.5528C10.7167 30.2934 10.7803 30.013 10.7868 29.7285C10.7933 29.444 10.7424 29.161 10.6373 28.8965C10.5321 28.6321 10.3748 28.3914 10.1748 28.189C9.97471 27.9866 9.73596 27.8264 9.47274 27.7182C8.96377 27.5089 8.39338 27.5055 7.88198 27.7088C7.37057 27.9121 6.95818 28.3062 6.73186 28.8078C6.50554 29.3095 6.483 29.8794 6.669 30.3974C6.855 30.9153 7.23499 31.3407 7.72874 31.5838ZM61.0087 34.1982C61.4017 34.0491 61.7614 33.824 62.0674 33.5358C62.3733 33.2476 62.6195 32.902 62.7918 32.5186C62.9642 32.1353 63.0593 31.7218 63.0718 31.3017C63.0844 30.8816 63.014 30.4631 62.8647 30.0702L57.1175 14.9022C56.8169 14.1088 56.2136 13.4672 55.4401 13.1186C54.6666 12.77 53.7863 12.7428 52.9927 13.043L48.4007 14.7838C48.0075 14.9326 47.6475 15.1575 47.3412 15.4455C47.0349 15.7336 46.7884 16.0791 46.6157 16.4625C46.443 16.8459 46.3476 17.2595 46.3349 17.6798C46.3222 18.1 46.3924 18.5187 46.5415 18.9118L52.2887 34.0798C52.4376 34.473 52.6624 34.8331 52.9505 35.1394C53.2385 35.4456 53.5841 35.6922 53.9675 35.8648C54.3508 36.0375 54.7645 36.1329 55.1847 36.1456C55.605 36.1584 56.0236 36.0881 56.4167 35.939L61.0087 34.1982ZM51.9495 17.219C51.4234 17.4184 50.9979 17.8187 50.7669 18.3318C50.5359 18.8449 50.5181 19.4288 50.7175 19.955C50.917 20.4812 51.3173 20.9066 51.8304 21.1376C52.3435 21.3687 52.9274 21.3864 53.4535 21.187C53.7141 21.0882 53.9526 20.9391 54.1555 20.7482C54.3585 20.5572 54.5218 20.3282 54.6362 20.0741C54.7506 19.8201 54.8138 19.546 54.8223 19.2675C54.8308 18.989 54.7843 18.7115 54.6855 18.451C54.5868 18.1904 54.4377 17.9519 54.2467 17.749C54.0558 17.5461 53.8268 17.3827 53.5727 17.2683C53.3186 17.1539 53.0445 17.0907 52.766 17.0822C52.4875 17.0738 52.2101 17.1202 51.9495 17.219Z" fill="currentColor"/>
<path fill-rule="evenodd" clip-rule="evenodd" d="M48.2621 18.2081H48.2365L48.1629 18.2145L47.8749 18.2401L46.8061 18.3457C45.9005 18.4417 44.6525 18.5793 43.2765 18.7617C40.4797 19.1329 37.3021 19.6641 35.3661 20.3073C34.7293 20.5217 33.8877 20.9985 32.8829 21.7313C31.8014 22.5384 30.7671 23.4071 29.7853 24.3329C27.8846 26.1238 26.0692 28.0033 24.3453 29.9649C23.8813 30.4865 23.9613 31.0369 24.2237 31.3185C25.0525 32.2081 26.1437 33.0913 27.3725 33.4529C28.4989 33.7825 29.8941 33.7313 31.5997 32.4513L31.6445 32.4193L34.8285 30.3649C35.4973 29.9297 36.7357 29.4241 37.9965 30.1217C39.3949 30.8961 41.4941 32.7713 43.1069 34.2913C44.0517 35.1839 44.9809 36.0928 45.8941 37.0177C46.0957 37.0497 46.4445 37.0337 47.0077 36.8417C47.8667 36.5211 48.6817 36.0932 49.4333 35.5681C50.4735 34.8661 51.4607 34.0885 52.3869 33.2417L52.4253 33.2033L52.4349 33.1937M43.8653 39.5169L44.0541 39.7089L44.2941 39.8337C45.5645 40.4673 46.9565 40.2369 48.0317 39.8753C49.1553 39.4652 50.222 38.9135 51.2061 38.2337C52.3907 37.4408 53.512 36.5571 54.5597 35.5905L54.6141 35.5361L54.6301 35.5233L54.6365 35.5169L53.5389 34.3553L54.6397 35.5137C54.792 35.369 54.9144 35.1956 54.9997 35.0036C55.085 34.8115 55.1317 34.6045 55.1371 34.3945C55.1424 34.1844 55.1063 33.9753 55.0309 33.7792C54.9554 33.583 54.8421 33.4037 54.6973 33.2513C54.5525 33.099 54.3792 32.9767 54.1871 32.8913C53.9951 32.806 53.7881 32.7593 53.578 32.754C53.3679 32.7486 53.1589 32.7847 52.9627 32.8602C52.7666 32.9356 52.5872 33.049 52.4349 33.1937M43.8653 39.5169L43.8493 39.5041L43.8077 39.4593L43.6349 39.2833L43.0013 38.6433C42.3138 37.9599 41.6172 37.2857 40.9117 36.6209C39.3181 35.1169 37.6253 33.6385 36.6173 33.0209L36.5629 33.0529L33.4717 35.0465C31.0013 36.8801 28.5789 37.1425 26.4701 36.5217C24.4477 35.9265 22.8861 34.5761 21.8813 33.4977C20.2909 31.7889 20.6045 29.3601 21.9453 27.8465C23.7391 25.8066 25.6282 23.8525 27.6061 21.9905C28.6811 20.9778 29.8137 20.028 30.9981 19.1457C32.0989 18.3425 33.2573 17.6417 34.3549 17.2737C36.6141 16.5185 40.0733 15.9617 42.8573 15.5905C44.4273 15.3839 46.0009 15.2058 47.5773 15.0561L47.8781 15.0273L47.9581 15.0209L47.9837 15.0177C48.4015 14.9898 48.8135 15.1267 49.1315 15.3992C49.4494 15.6716 49.6479 16.0578 49.6844 16.4749C49.7208 16.892 49.5923 17.3068 49.3264 17.6303C49.0605 17.9537 48.6784 18.1632 48.2621 18.2081" fill="currentColor"/>
<path fill-rule="evenodd" clip-rule="evenodd" d="M17.6255 21.1964L16.9951 19.7244L16.3647 18.2524L16.4927 18.2012L16.8447 18.0508C18.5711 17.3194 20.3045 16.6047 22.0447 15.9068C23.5103 15.318 25.0399 14.7228 26.3135 14.2748C26.9471 14.0508 27.5327 13.8588 28.0255 13.718C28.4511 13.5964 28.9951 13.4556 29.4463 13.4556C29.8559 13.4556 30.2879 13.5516 30.6399 13.6444C31.0239 13.7436 31.4399 13.8844 31.8655 14.038C32.7199 14.3484 33.6831 14.7548 34.5727 15.1484C35.6122 15.6119 36.6428 16.0952 37.6639 16.598L37.8687 16.7004L37.9231 16.726L37.9423 16.7356C38.3187 16.9268 38.6043 17.259 38.7369 17.6599C38.8694 18.0608 38.8381 18.4978 38.6497 18.8757C38.4614 19.2536 38.1314 19.5417 37.7315 19.6773C37.3317 19.8129 36.8944 19.785 36.5151 19.5996L36.4991 19.59L36.4479 19.5676L36.2559 19.4716C35.2704 18.9872 34.2761 18.521 33.2735 18.0732C32.4095 17.6892 31.5263 17.318 30.7743 17.046C30.4585 16.9299 30.1383 16.8264 29.8143 16.7356C29.6975 16.7022 29.5789 16.6755 29.4591 16.6556L29.4303 16.662C29.3663 16.6748 29.2063 16.7068 28.9055 16.7932C28.5023 16.9084 27.9839 17.0812 27.3759 17.2924C26.1695 17.7212 24.6847 18.294 23.2319 18.8764C21.5117 19.566 19.7985 20.2733 18.0927 20.998L17.7471 21.1452L17.6255 21.1964ZM15.5263 20.3548C15.4433 20.1617 15.399 19.9541 15.3962 19.7439C15.3934 19.5338 15.432 19.3251 15.5099 19.1299C15.5878 18.9346 15.7033 18.7566 15.85 18.6061C15.9967 18.4555 16.1716 18.3353 16.3647 18.2524L16.9951 19.7244L17.6255 21.1964C17.2355 21.3629 16.7953 21.3678 16.4017 21.21C16.0081 21.0522 15.6932 20.7446 15.5263 20.3548ZM9.60631 32.6332C9.75063 32.4804 9.92364 32.3575 10.1155 32.2716C10.3073 32.1857 10.5142 32.1384 10.7242 32.1324C10.9343 32.1265 11.1436 32.162 11.3399 32.2369C11.5363 32.3119 11.716 32.4248 11.8687 32.5692L10.7711 33.7308L9.67031 34.8956C9.51751 34.7512 9.39464 34.5782 9.30872 34.3864C9.22281 34.1946 9.17553 33.9877 9.16959 33.7776C9.16364 33.5675 9.19915 33.3583 9.27409 33.1619C9.34902 32.9656 9.46191 32.7859 9.60631 32.6332ZM23.8847 43.1676L32.3743 46.3516C33.2376 46.6755 34.1759 46.744 35.0771 46.5488C35.9782 46.3536 36.8041 45.903 37.4559 45.2508L43.8815 38.8252C44.1819 38.5252 44.5893 38.3568 45.0138 38.3571C45.4384 38.3574 45.8455 38.5263 46.1455 38.8268C46.4455 39.1272 46.6139 39.5345 46.6136 39.9591C46.6133 40.3837 46.4443 40.7908 46.1439 41.0908L39.7183 47.5132C38.632 48.5995 37.2559 49.3502 35.7544 49.6753C34.2529 50.0005 32.6895 49.8864 31.2511 49.3468L22.5791 46.0956L22.5055 46.0572C22.027 45.7925 21.572 45.4873 21.1455 45.1452C20.5565 44.6872 19.9782 44.2157 19.4111 43.7308C18.1311 42.6428 16.6207 41.2988 15.1807 39.9964C13.483 38.4537 11.7986 36.8963 10.1279 35.3244L9.79191 35.0076L9.67031 34.8956L10.7711 33.7308L11.8687 32.5692L11.9871 32.678L12.3199 32.9948C13.9767 34.5529 15.6471 36.0964 17.3311 37.6252C18.7615 38.9212 20.2431 40.2396 21.4783 41.2892C22.0991 41.814 22.6495 42.2652 23.0975 42.6076C23.5039 42.9212 23.7599 43.094 23.8847 43.1676ZM12.0575 48.7996C12.327 48.4769 12.6574 48.2106 13.0299 48.0157C13.4024 47.8208 13.8097 47.7012 14.2284 47.6638C14.6471 47.6263 15.0691 47.6718 15.4702 47.7975C15.8714 47.9232 16.2438 48.1267 16.5663 48.3964L19.5103 50.8572C19.9687 51.2403 20.5251 51.4875 21.1167 51.5708L24.9183 52.102C25.3345 52.1604 25.7352 52.3002 26.0974 52.5135C26.4596 52.7267 26.7763 53.0092 27.0293 53.3448C27.2823 53.6805 27.4667 54.0626 27.5721 54.4696C27.6774 54.8765 27.7015 55.3001 27.6431 55.7164C27.5847 56.1326 27.4449 56.5333 27.2316 56.8955C27.0184 57.2577 26.7359 57.5743 26.4002 57.8273C26.0646 58.0804 25.6824 58.2648 25.2755 58.3701C24.8686 58.4754 24.4449 58.4996 24.0287 58.4412L20.2271 57.9068C18.4527 57.6579 16.7833 56.9175 15.4079 55.7692L12.4639 53.3084C11.8128 52.7646 11.4042 51.9846 11.328 51.1397C11.2518 50.2948 11.5142 49.4543 12.0575 48.8028" fill="currentColor"/>
<path d="M15.8339 19.5965L23.6163 16.4797H31.3987L46.5667 18.1661L49.6803 25.9453L52.7939 33.7277L46.5667 38.3997L35.6739 47.7373L23.6163 45.0237L16.9955 39.9549L10.7715 33.7277L15.8339 19.5965Z" fill="currentColor"/>
</g>
<path fill-rule="evenodd" clip-rule="evenodd" d="M11.6687 7.96787C10.8947 7.61998 10.0142 7.59377 9.22087 7.89502C8.42753 8.19627 7.78634 8.80031 7.43832 9.57427L0.516725 24.9439C0.168422 25.7171 0.141293 26.597 0.441298 27.3902C0.741303 28.1834 1.3439 28.8251 2.11672 29.1743L6.88473 31.3215C7.26776 31.4944 7.68111 31.5902 8.10118 31.6034C8.52125 31.6166 8.9398 31.547 9.33293 31.3984C9.72607 31.2498 10.0861 31.0252 10.3924 30.7375C10.6988 30.4498 10.9454 30.1045 11.1183 29.7215L18.0399 14.3487C18.3882 13.5754 18.4154 12.6956 18.1154 11.9024C17.8153 11.1092 17.2127 10.4675 16.4399 10.1183L11.6687 7.96787ZM5.99512 26.9375C6.25609 27.0551 6.53767 27.1202 6.8238 27.1291C7.10992 27.1379 7.39499 27.0903 7.66272 26.989C7.93045 26.8877 8.1756 26.7346 8.38417 26.5385C8.59275 26.3425 8.76066 26.1072 8.87833 25.8463C8.99599 25.5853 9.0611 25.3037 9.06994 25.0176C9.07878 24.7315 9.03118 24.4464 8.92986 24.1787C8.82853 23.9109 8.67546 23.6658 8.47939 23.4572C8.28332 23.2486 8.04809 23.0807 7.78713 22.9631C7.26009 22.7254 6.66023 22.7069 6.11953 22.9115C5.57882 23.1162 5.14156 23.5272 4.90392 24.0543C4.66629 24.5813 4.64775 25.1812 4.85239 25.7219C5.05703 26.2626 5.46809 26.6998 5.99512 26.9375ZM60.8495 29.5935C61.2425 29.4443 61.6022 29.2192 61.9081 28.9311C62.2141 28.6429 62.4603 28.2973 62.6326 27.9139C62.805 27.5306 62.9001 27.1171 62.9126 26.697C62.9251 26.2768 62.8548 25.8584 62.7055 25.4655L56.7375 9.70867C56.5887 9.31544 56.3638 8.95539 56.0758 8.6491C55.7878 8.34281 55.4422 8.09629 55.0588 7.92363C54.6754 7.75097 54.2618 7.65555 53.8415 7.64282C53.4213 7.6301 53.0026 7.70032 52.6095 7.84947L47.7231 9.70227C47.3302 9.85141 46.9705 10.0765 46.6645 10.3647C46.3586 10.6529 46.1124 10.9985 45.94 11.3818C45.7677 11.7651 45.6725 12.1787 45.66 12.5988C45.6475 13.0189 45.7179 13.4374 45.8671 13.8303L51.8383 29.5903C52.1389 30.3837 52.7423 31.0252 53.5158 31.3739C54.2893 31.7225 55.1696 31.7497 55.9631 31.4495L60.8495 29.5935ZM51.4511 12.1695C51.1834 12.271 50.9384 12.4242 50.7299 12.6204C50.5214 12.8166 50.3536 13.0519 50.2361 13.313C50.1186 13.574 50.0536 13.8556 50.045 14.1418C50.0363 14.4279 50.084 14.713 50.1855 14.9807C50.287 15.2484 50.4402 15.4934 50.6364 15.7019C50.8326 15.9104 51.068 16.0782 51.329 16.1957C51.5901 16.3132 51.8717 16.3782 52.1578 16.3868C52.444 16.3955 52.729 16.3478 52.9967 16.2463C53.5373 16.0413 53.9744 15.63 54.2117 15.1028C54.4491 14.5756 54.4673 13.9757 54.2623 13.4351C54.0574 12.8945 53.646 12.4574 53.1188 12.2201C52.5916 11.9827 51.9917 11.9645 51.4511 12.1695Z" fill="currentColor"/>
<path fill-rule="evenodd" clip-rule="evenodd" d="M47.6326 13.1425H47.6582C47.8677 13.1242 48.0715 13.0649 48.2581 12.9678C48.4446 12.8708 48.6102 12.7379 48.7454 12.5769C48.8806 12.4158 48.9828 12.2297 49.046 12.0292C49.1093 11.8286 49.1325 11.6176 49.1142 11.4081C49.0959 11.1986 49.0366 10.9948 48.9395 10.8082C48.8425 10.6217 48.7096 10.4561 48.5486 10.3209C48.3875 10.1857 48.2014 10.0835 48.0009 10.0203C47.8003 9.95699 47.5893 9.93383 47.3798 9.95211H47.3542L47.271 9.96171L46.9606 9.99371L45.831 10.1025C44.8806 10.1985 43.5654 10.3489 42.1126 10.5409C39.2486 10.9185 35.6998 11.4945 33.3766 12.2689C32.2502 12.6433 31.0598 13.3697 29.9206 14.2017C28.7654 15.0465 27.5686 16.0737 26.423 17.1393C24.3898 19.057 22.4474 21.0688 20.6022 23.1681C19.2614 24.6849 18.951 27.1041 20.5254 28.8193C21.5494 29.9265 23.1494 31.3281 25.223 31.9553C27.3894 32.6049 29.8854 32.3521 32.4358 30.4577L35.6326 28.3937L35.6902 28.3585C36.1478 28.6369 36.7846 29.1169 37.5462 29.7537C38.3782 30.4513 39.2806 31.2737 40.1222 32.0641C41.0774 32.9644 42.0162 33.8819 42.9382 34.8161L43.1142 34.9985L43.159 35.0433L43.175 35.0593L43.3638 35.2513L43.6038 35.3761C44.8934 36.0161 46.311 35.7857 47.4118 35.4145C48.5574 35.0305 49.6966 34.3777 50.6662 33.7345C51.8802 32.9176 53.0302 32.0094 54.1062 31.0177L54.1638 30.9665L54.1798 30.9505L54.183 30.9473C54.183 30.9473 53.9014 29.9553 52.8006 28.7969L51.9334 29.8849L51.2006 32.0001L43.175 35.0593L44.8006 33.6001L43.943 31.3057C43.4066 30.7774 42.8647 30.2547 42.3174 29.7377C41.4534 28.9249 40.4998 28.0577 39.5974 27.3057C38.7238 26.5697 37.815 25.8721 37.0566 25.4561C35.7958 24.7649 34.5606 25.2769 33.895 25.7089L30.6054 27.8337L30.5606 27.8657C28.7846 29.1969 27.3254 29.2481 26.1446 28.8929C24.8646 28.5089 23.7286 27.5745 22.8806 26.6529C22.615 26.3649 22.5382 25.8113 22.999 25.2897C24.7753 23.2675 26.645 21.3294 28.6022 19.4817C29.6934 18.4673 30.7878 17.5297 31.8086 16.7841C32.8518 16.0225 33.7286 15.5265 34.391 15.3057C36.3878 14.6401 39.655 14.0929 42.5318 13.7121C44.105 13.5054 45.6818 13.3272 47.2614 13.1777L47.559 13.1489L47.6326 13.1425Z" fill="currentColor"/>
<path d="M45.2068 32.5666C44.7888 32.143 44.3675 31.7227 43.9428 31.3058L44.8004 33.6002L43.1748 35.0626L51.2004 32.0002L51.9332 29.8882L52.8004 28.8002L51.9844 28.6274L51.9748 28.6338L51.93 28.6754L51.7572 28.8354C50.8567 29.6479 49.8997 30.3954 48.8932 31.0722C48.0292 31.6482 47.1556 32.1282 46.3876 32.3842C45.7924 32.5858 45.4212 32.6018 45.2068 32.5666Z" fill="currentColor"/>
<path fill-rule="evenodd" clip-rule="evenodd" d="M16.1508 16.2172L15.5204 14.7452L14.89 13.2732L15.018 13.222L15.3796 13.0684C17.1538 12.3151 18.9352 11.5791 20.7236 10.8604C22.1762 10.2743 23.6399 9.71635 25.114 9.18681C25.7636 8.95641 26.3684 8.75801 26.874 8.61401C27.3092 8.48601 27.866 8.34521 28.3204 8.34521C28.7364 8.34521 29.1748 8.44121 29.5364 8.53721C29.9268 8.64281 30.3556 8.78361 30.7908 8.94361C31.6676 9.26361 32.6564 9.67961 33.5716 10.0828C34.6391 10.5598 35.6974 11.057 36.746 11.574L36.9572 11.6764L37.0148 11.7052L37.034 11.7148C37.4138 11.9045 37.7027 12.2373 37.8371 12.64C37.9716 13.0426 37.9405 13.4822 37.7508 13.862C37.5612 14.2418 37.2284 14.5307 36.8257 14.6651C36.423 14.7995 35.9834 14.7685 35.6036 14.5788L35.5876 14.5692L35.5364 14.5436L35.338 14.4476C34.324 13.949 33.3009 13.4689 32.2692 13.0076C31.4247 12.6271 30.5677 12.2749 29.6996 11.9516C29.3745 11.8316 29.0446 11.7249 28.7108 11.6316C28.5857 11.5962 28.4586 11.5684 28.33 11.5484L28.3012 11.5548C28.2372 11.5644 28.0676 11.5996 27.7508 11.6892C27.2212 11.8458 26.6962 12.0176 26.1764 12.2044C24.9348 12.6428 23.4084 13.2348 21.914 13.8332C20.1456 14.5415 18.3844 15.268 16.6308 16.0124L16.2756 16.1628L16.1508 16.2172ZM14.0484 15.3756C13.8819 14.9856 13.877 14.5455 14.0348 14.1518C14.1926 13.7582 14.5002 13.4434 14.89 13.2764L15.5204 14.7484L16.1508 16.2172C15.9576 16.3002 15.7498 16.3442 15.5395 16.3468C15.3292 16.3494 15.1204 16.3105 14.9251 16.2323C14.7299 16.1542 14.5519 16.0383 14.4015 15.8913C14.2511 15.7443 14.1311 15.569 14.0484 15.3756ZM7.95885 28.0476C8.10317 27.8948 8.27618 27.7719 8.468 27.686C8.65982 27.6001 8.86669 27.5528 9.07679 27.5469C9.28689 27.541 9.4961 27.5765 9.69247 27.6514C9.88884 27.7263 10.0685 27.8392 10.2212 27.9836L9.12045 29.1452L8.02285 30.31C7.87005 30.1657 7.74718 29.9927 7.66126 29.8009C7.57535 29.609 7.52807 29.4022 7.52212 29.1921C7.51618 28.982 7.55169 28.7728 7.62663 28.5764C7.70156 28.38 7.81445 28.2003 7.95885 28.0476ZM22.5828 38.886L31.4244 42.2012C32.2873 42.5245 33.225 42.5926 34.1255 42.3974C35.026 42.2023 35.8513 41.752 36.5028 41.1004L43.1908 34.4124C43.4913 34.1124 43.8986 33.944 44.3232 33.9443C44.7478 33.9446 45.1548 34.1136 45.4548 34.414C45.7549 34.7145 45.9232 35.1218 45.9229 35.5463C45.9226 35.9709 45.7537 36.378 45.4532 36.678L38.7652 43.366C37.6789 44.4512 36.3032 45.2009 34.8023 45.5254C33.3015 45.85 31.7389 45.7358 30.3012 45.1964L21.2772 41.814L21.2036 41.7788C20.7144 41.5084 20.2497 41.1957 19.8148 40.8444C19.2964 40.4444 18.6884 39.9484 18.0324 39.3884C16.5637 38.1326 15.115 36.8535 13.6868 35.5516C11.9419 33.9666 10.2106 32.3665 8.49325 30.7516L8.14445 30.4252L8.02285 30.31L9.12045 29.1452L10.2212 27.9836L10.3396 28.0956L10.682 28.4188C12.3862 30.0202 14.1036 31.6075 15.834 33.1804C17.306 34.5148 18.826 35.8684 20.0996 36.95C20.7396 37.4908 21.306 37.9516 21.7636 38.3068C22.186 38.63 22.4516 38.8092 22.5828 38.8828M11.7444 45.7212C12.0165 45.3968 12.406 45.1935 12.8276 45.1557C13.2492 45.1179 13.6687 45.2488 13.994 45.5196L17.0628 48.0796C17.7506 48.6538 18.5852 49.024 19.4724 49.1484L23.4276 49.7052C23.6404 49.7286 23.8464 49.7943 24.0333 49.8987C24.2201 50.0031 24.3842 50.1439 24.5157 50.3128C24.6472 50.4817 24.7435 50.6752 24.7988 50.882C24.8542 51.0888 24.8674 51.3046 24.8379 51.5166C24.8083 51.7286 24.7365 51.9325 24.6268 52.1163C24.517 52.3 24.3714 52.4599 24.1988 52.5864C24.0261 52.7129 23.8298 52.8035 23.6215 52.8527C23.4132 52.902 23.1971 52.909 22.986 52.8732L19.0276 52.3196C17.5489 52.1119 16.1577 51.4945 15.0116 50.5372L11.9428 47.9772C11.7813 47.8424 11.6479 47.6771 11.5503 47.4908C11.4528 47.3044 11.3929 47.1006 11.3742 46.891C11.3554 46.6815 11.3782 46.4703 11.4412 46.2696C11.5042 46.0688 11.6062 45.8825 11.7412 45.7212" fill="currentColor"/>
</svg>
