<svg width="30" height="30" viewBox="0 0 30 30" fill="none" xmlns="http://www.w3.org/2000/svg">
<path opacity="0.75" fill-rule="evenodd" clip-rule="evenodd" d="M16.875 1.875C17.8696 1.875 18.8234 2.27009 19.5266 2.97335C20.2299 3.67661 20.625 4.63044 20.625 5.625V9.375C20.625 10.3696 20.2299 11.3234 19.5266 12.0267C18.8234 12.7299 17.8696 13.125 16.875 13.125H16.4062V15H22.9688C23.466 15 23.9429 15.1975 24.2946 15.5492C24.6462 15.9008 24.8438 16.3777 24.8438 16.875V18.7837C26.6925 19.0125 28.125 20.5875 28.125 22.5V24.375C28.1252 25.3035 27.7809 26.199 27.1589 26.8883C26.5368 27.5776 25.6811 28.0115 24.7575 28.1062L24.375 28.125H22.5L22.1175 28.1062C21.2596 28.018 20.4584 27.6368 19.8488 27.0268C19.2391 26.4169 18.8584 25.6154 18.7706 24.7575L18.75 24.375V22.5C18.75 20.5875 20.1825 19.0125 22.0312 18.7837V17.8125H7.96875V18.7837C9.8175 19.0125 11.25 20.5875 11.25 22.5V24.375C11.2502 25.3035 10.9059 26.199 10.2839 26.8883C9.6618 27.5776 8.80614 28.0115 7.8825 28.1062L7.5 28.125H5.625L5.2425 28.1062C4.38464 28.018 3.5834 27.6368 2.97377 27.0268C2.36414 26.4169 1.98338 25.6154 1.89563 24.7575L1.875 24.375V22.5C1.875 20.5875 3.3075 19.0125 5.15625 18.7837V16.875C5.15625 16.3777 5.35379 15.9008 5.70542 15.5492C6.05706 15.1975 6.53397 15 7.03125 15H13.5938V13.125H13.125C12.1304 13.125 11.1766 12.7299 10.4733 12.0267C9.77009 11.3234 9.375 10.3696 9.375 9.375V5.625C9.375 4.63044 9.77009 3.67661 10.4733 2.97335C11.1766 2.27009 12.1304 1.875 13.125 1.875H16.875ZM5.625 21.5625C5.37636 21.5625 5.1379 21.6613 4.96209 21.8371C4.78627 22.0129 4.6875 22.2514 4.6875 22.5V24.375C4.6875 24.6236 4.78627 24.8621 4.96209 25.0379C5.1379 25.2137 5.37636 25.3125 5.625 25.3125H7.5C7.74864 25.3125 7.9871 25.2137 8.16291 25.0379C8.33873 24.8621 8.4375 24.6236 8.4375 24.375V22.5C8.4375 22.2514 8.33873 22.0129 8.16291 21.8371C7.9871 21.6613 7.74864 21.5625 7.5 21.5625H5.625ZM22.5 21.5625C22.2514 21.5625 22.0129 21.6613 21.8371 21.8371C21.6613 22.0129 21.5625 22.2514 21.5625 22.5V24.375C21.5625 24.6236 21.6613 24.8621 21.8371 25.0379C22.0129 25.2137 22.2514 25.3125 22.5 25.3125H24.375C24.6236 25.3125 24.8621 25.2137 25.0379 25.0379C25.2137 24.8621 25.3125 24.6236 25.3125 24.375V22.5C25.3125 22.2514 25.2137 22.0129 25.0379 21.8371C24.8621 21.6613 24.6236 21.5625 24.375 21.5625H22.5Z" fill="currentColor"/>
</svg>
