<svg width="61" height="60" viewBox="0 0 61 60" fill="none" xmlns="http://www.w3.org/2000/svg">
<path opacity="0.5" d="M30.5 19.375C29.1047 19.375 27.7231 19.6498 26.434 20.1838C25.1449 20.7177 23.9736 21.5004 22.987 22.487C22.0004 23.4736 21.2177 24.6449 20.6838 25.934C20.1498 27.2231 19.875 28.6047 19.875 30C19.875 31.3953 20.1498 32.7769 20.6838 34.066C21.2177 35.3551 22.0004 36.5264 22.987 37.513C23.9736 38.4996 25.1449 39.2823 26.434 39.8162C27.7231 40.3502 29.1047 40.625 30.5 40.625C33.3179 40.625 36.0204 39.5056 38.013 37.513C40.0056 35.5204 41.125 32.8179 41.125 30C41.125 27.1821 40.0056 24.4796 38.013 22.487C36.0204 20.4944 33.3179 19.375 30.5 19.375ZM16.125 30C16.125 26.1875 17.6395 22.5312 20.3353 19.8353C23.0312 17.1395 26.6875 15.625 30.5 15.625C34.3125 15.625 37.9688 17.1395 40.6647 19.8353C43.3605 22.5312 44.875 26.1875 44.875 30C44.875 33.8125 43.3605 37.4688 40.6647 40.1647C37.9688 42.8605 34.3125 44.375 30.5 44.375C26.6875 44.375 23.0312 42.8605 20.3353 40.1647C17.6395 37.4688 16.125 33.8125 16.125 30Z" fill="currentColor"/>
<path d="M12.3752 29.9999C12.3765 26.118 13.6242 22.3392 15.9344 19.2196C18.2447 16.1 21.4955 13.8045 25.2082 12.6711C28.9209 11.5377 32.8995 11.6263 36.5581 12.9237C40.2168 14.2212 43.3622 16.659 45.5314 19.8783C47.7005 23.0975 48.7788 26.9282 48.6075 30.8063C48.4362 34.6844 47.0243 38.405 44.5797 41.4205C42.1351 44.436 38.787 46.5869 35.0282 47.5567C31.2694 48.5264 27.2985 48.2638 23.7002 46.8074C23.4704 46.7063 23.2227 46.6524 22.9717 46.6489C22.7208 46.6453 22.4716 46.6922 22.2391 46.7867C22.0066 46.8812 21.7954 47.0214 21.6181 47.1991C21.4408 47.3767 21.3009 47.5882 21.2068 47.8209C21.1127 48.0536 21.0663 48.3028 21.0704 48.5537C21.0744 48.8047 21.1288 49.0523 21.2303 49.2819C21.3318 49.5114 21.4783 49.7183 21.6612 49.8902C21.8442 50.062 22.0597 50.1954 22.2952 50.2824C26.9723 52.1736 32.1594 52.3899 36.9778 50.8948C41.7962 49.3998 45.9497 46.2851 48.7348 42.0785C51.5199 37.8719 52.7653 32.832 52.2602 27.8123C51.7551 22.7927 49.5304 18.1019 45.9631 14.5345C42.3957 10.9672 37.7049 8.74251 32.6853 8.23739C27.6656 7.73228 22.6257 8.97775 18.4191 11.7628C14.2125 14.5479 11.0978 18.7014 9.60276 23.5198C8.10767 28.3382 8.32402 33.5253 10.2152 38.2024C10.3022 38.4379 10.4356 38.6534 10.6074 38.8364C10.7793 39.0193 10.9862 39.1658 11.2157 39.2673C11.4453 39.3688 11.6929 39.4232 11.9439 39.4272C12.1948 39.4313 12.444 39.3849 12.6767 39.2908C12.9094 39.1967 13.1209 39.0568 13.2985 38.8795C13.4762 38.7022 13.6164 38.491 13.7109 38.2585C13.8054 38.026 13.8523 37.7768 13.8487 37.5259C13.8452 37.2749 13.7912 37.0272 13.6902 36.7974C12.8161 34.638 12.3695 32.3295 12.3752 29.9999Z" fill="currentColor"/>
<path d="M30.4996 35C31.574 34.9996 32.6197 34.6531 33.4818 34.0118C34.3439 33.3706 34.9765 32.4687 35.2859 31.4399C35.5952 30.411 35.565 29.3098 35.1996 28.2994C34.8342 27.2891 34.153 26.4233 33.257 25.8304C32.3611 25.2374 31.2979 24.9489 30.2251 25.0074C29.1523 25.066 28.1269 25.4686 27.3008 26.1555C26.4747 26.8424 25.8918 27.7772 25.6386 28.8213C25.3853 29.8655 25.4751 30.9634 25.8946 31.9525L17.9221 39.925L17.8496 40H14.9246C13.9304 40.0009 12.9772 40.3965 12.2746 41.1L8.18214 45.1925C7.92025 45.4547 7.74194 45.7887 7.66973 46.1522C7.59752 46.5157 7.63464 46.8924 7.77642 47.2348C7.9182 47.5772 8.15827 47.8699 8.46631 48.076C8.77435 48.282 9.13654 48.3922 9.50714 48.3925H12.1071V50.9925C12.1075 51.3631 12.2176 51.7253 12.4237 52.0333C12.6297 52.3414 12.9224 52.5814 13.2648 52.7232C13.6072 52.865 13.984 52.9021 14.3475 52.8299C14.711 52.7577 15.0449 52.5794 15.3071 52.3175L19.3996 48.2225C20.1025 47.5205 20.4981 46.5684 20.4996 45.575V42.65L20.5746 42.5775L28.5446 34.6075C29.1446 34.8625 29.8046 35.0025 30.4971 35.0025M17.8471 42.5025L17.9971 42.65V45.575C17.9964 45.9062 17.8642 46.2236 17.6296 46.4575L14.6046 49.4825V47.145C14.6046 46.8135 14.4729 46.4955 14.2385 46.2611C14.0041 46.0267 13.6862 45.895 13.3546 45.895H11.0146L14.0396 42.87C14.1558 42.7528 14.2941 42.6598 14.4464 42.5963C14.5987 42.5327 14.7621 42.5 14.9271 42.5L17.8471 42.5025Z" fill="currentColor"/>
</svg>
