<svg width="18" height="18" viewBox="0 0 18 18" fill="none" xmlns="http://www.w3.org/2000/svg">
<path d="M9 16.5C7.9625 16.5 6.9875 16.303 6.075 15.909C5.1625 15.515 4.36875 14.9808 3.69375 14.3063C3.01875 13.6318 2.4845 12.838 2.091 11.925C1.6975 11.012 1.5005 10.037 1.5 9C1.4995 7.963 1.6965 6.988 2.091 6.075C2.4855 5.162 3.01975 4.36825 3.69375 3.69375C4.36775 3.01925 5.1615 2.485 6.075 2.091C6.9885 1.697 7.9635 1.5 9 1.5C9.2125 1.5 9.39075 1.572 9.53475 1.716C9.67875 1.86 9.7505 2.038 9.75 2.25V7.70625C9.975 7.84375 10.1563 8.022 10.2938 8.241C10.4313 8.46 10.5 8.713 10.5 9C10.5 9.4125 10.3533 9.76575 10.0598 10.0597C9.76625 10.3538 9.413 10.5005 9 10.5C8.587 10.4995 8.234 10.3527 7.941 10.0597C7.648 9.76675 7.501 9.4135 7.5 9C7.5 8.7125 7.56875 8.45625 7.70625 8.23125C7.84375 8.00625 8.025 7.83125 8.25 7.70625V6.09375C7.6 6.26875 7.0625 6.622 6.6375 7.1535C6.2125 7.685 6 8.3005 6 9C6 9.825 6.29375 10.5312 6.88125 11.1187C7.46875 11.7063 8.175 12 9 12C9.825 12 10.5313 11.7063 11.1188 11.1187C11.7063 10.5312 12 9.825 12 9C12 8.675 11.9533 8.375 11.8598 8.1C11.7663 7.825 11.638 7.5625 11.475 7.3125C11.35 7.1375 11.2938 6.94375 11.3063 6.73125C11.3188 6.51875 11.3938 6.34375 11.5313 6.20625C11.6813 6.05625 11.8595 5.98125 12.066 5.98125C12.2725 5.98125 12.438 6.06875 12.5625 6.24375C12.85 6.63125 13.0783 7.05625 13.2473 7.51875C13.4163 7.98125 13.5005 8.475 13.5 9C13.5 10.25 13.0625 11.3125 12.1875 12.1875C11.3125 13.0625 10.25 13.5 9 13.5C7.75 13.5 6.6875 13.0625 5.8125 12.1875C4.9375 11.3125 4.5 10.25 4.5 9C4.5 7.875 4.85625 6.897 5.56875 6.066C6.28125 5.235 7.175 4.73175 8.25 4.55625V3.0375C6.7625 3.225 5.5155 3.88125 4.509 5.00625C3.5025 6.13125 2.9995 7.4625 3 9C3 10.675 3.58125 12.0937 4.74375 13.2562C5.90625 14.4187 7.325 15 9 15C10.675 15 12.0938 14.4187 13.2563 13.2562C14.4187 12.0937 15 10.675 15 9C15 8.275 14.8813 7.5905 14.6438 6.9465C14.4063 6.3025 14.0688 5.71825 13.6313 5.19375C13.4938 5.03125 13.425 4.84375 13.425 4.63125C13.425 4.41875 13.5 4.2375 13.65 4.0875C13.8 3.9375 13.9783 3.86575 14.1848 3.87225C14.3913 3.87875 14.563 3.963 14.7 4.125C15.2625 4.7875 15.7033 5.53125 16.0223 6.35625C16.3413 7.18125 16.5005 8.0625 16.5 9C16.5 10.0375 16.303 11.0125 15.909 11.925C15.515 12.8375 14.9808 13.6313 14.3063 14.3063C13.6318 14.9813 12.838 15.5157 11.925 15.9097C11.012 16.3037 10.037 16.5005 9 16.5Z" fill="currentColor"/>
</svg>
